<svg width="138" height="111" viewBox="0 0 138 111" fill="none" xmlns="http://www.w3.org/2000/svg">
<path d="M60.614 103.933C60.7226 103.886 60.9593 103.78 61.1912 103.65C61.5958 103.423 62.2988 102.967 62.9256 102.153C63.7044 101.141 64.2864 100.027 64.6951 98.8549C64.8148 99.1193 64.9531 99.3896 65.114 99.6567C65.1467 99.711 65.1514 99.7176 65.1668 99.7436C65.1779 99.7623 65.1947 99.7916 65.2205 99.8373L65.3406 100.05L65.4783 100.251C67.0118 102.483 69.5183 104.159 72.5301 104.431C73.6286 104.53 74.7541 104.591 75.9041 104.612V104.611C76.1975 104.621 76.489 104.63 76.7781 104.633C79.9737 104.675 82.5703 103.232 84.3006 101.125C86.1593 103.086 88.7884 104.303 91.8172 104.336V104.339H91.8181V104.34H91.8513C92.6841 104.354 92.7371 104.372 92.7752 104.376C93.1744 104.422 93.6137 104.472 94.8426 104.525H94.8484C97.1672 104.623 99.4625 104.655 101.734 104.623V104.624C104.107 104.624 106.411 104.541 108.643 104.373L108.684 104.369L108.725 104.366C111.108 104.149 113.367 103.745 115.476 103.123C117.72 102.461 119.811 101.47 121.626 100.059C123.728 98.4342 125.211 96.2851 125.975 93.7407L125.976 93.7416C126.533 91.9889 126.752 89.9933 126.218 87.9448C126.146 87.672 125.932 86.7889 125.668 85.9711C125.489 85.4184 124.998 83.8978 123.957 82.6372C123.539 82.1061 123.087 81.6073 122.604 81.1411C123.677 79.2617 124.31 77.1642 124.31 74.9047C124.31 72.1045 123.528 69.3752 121.698 67.0688H121.7C121.689 67.0549 121.678 67.0416 121.667 67.0278C121.663 67.0236 121.66 67.0192 121.657 67.0151H121.656C120.091 65.034 118.074 63.5624 115.802 62.5122L115.803 62.5112C113.582 61.4547 111.133 60.7559 108.526 60.3432C106.133 59.9559 103.649 59.7305 101.08 59.6616C98.5303 59.5932 95.9587 59.6617 93.366 59.8657C92.9408 59.8991 92.5189 59.9349 92.1004 59.9731L90.8543 60.0952C85.2869 60.6772 81.4781 65.4536 81.5115 70.6713L81.5125 70.7338L81.5135 70.7973C81.6266 74.6707 81.6019 76.152 81.5174 78.8022C81.4291 78.5577 81.3365 78.2965 81.2361 78.02C80.9124 77.1281 80.5623 76.1355 80.1863 75.0414C79.8042 73.9296 79.3994 72.7736 78.9724 71.5737C78.5851 70.3541 78.1928 69.1987 77.7967 68.1088C77.6435 67.6446 77.463 67.195 77.2361 66.7582C77.0027 66.3089 76.7691 65.9648 76.6004 65.7299C75.3246 62.5693 72.2992 59.6217 67.7918 59.7612C66.9987 59.7857 65.9554 59.8135 65.4851 59.8276H60.1658C55.7599 59.8277 53.7489 63.5145 53.2039 64.5942C52.5051 65.9787 51.9196 67.8924 51.7908 68.2524C51.4046 69.332 51.2716 69.7953 50.7586 71.1772C49.7822 73.8071 48.8766 76.3456 48.0428 78.7924C47.2032 81.2558 46.4576 83.6029 45.8074 85.8315L45.782 85.9213C45.6253 86.4946 45.504 86.9797 45.4226 87.4047C45.3792 87.6314 45.3407 87.8742 45.3142 88.1323C45.3029 88.2425 45.2973 88.3445 45.2918 88.437C45.2825 88.4735 45.272 88.5171 45.2586 88.5678C44.9295 89.8082 44.6494 90.8957 44.4217 91.8237L44.2107 92.6977C43.1626 97.1592 45.1631 102.459 50.5232 104.111C50.5541 104.12 50.616 104.14 50.6863 104.16C50.7164 104.168 50.7939 104.189 50.8914 104.213C50.9372 104.225 51.038 104.249 51.1658 104.274C51.1838 104.278 51.6369 104.372 52.2049 104.373H52.2586C53.081 104.364 53.5808 104.36 53.9012 104.358C54.0475 104.357 54.1383 104.356 54.1912 104.356C54.2096 104.357 54.2309 104.36 54.2547 104.362C54.4786 104.381 54.7524 104.398 55.1824 104.415C56.3692 104.465 57.7429 104.508 58.7683 104.401C59.2889 104.359 59.7495 104.252 60.1365 104.121C60.3396 104.052 60.497 103.985 60.5672 103.955C60.5831 103.948 60.5984 103.94 60.614 103.933ZM60.614 103.933C60.6275 103.927 60.6374 103.924 60.6385 103.923C60.6466 103.92 60.6309 103.926 60.614 103.933ZM98.7556 90.5317L98.7537 91.8549M98.7556 90.5317L99.1795 90.4125M98.7556 90.5317L98.7537 91.8549M98.7556 90.5317L99.1795 90.4125M98.7537 91.8549L98.7439 91.8881M98.7537 91.8549V91.8774M98.7537 91.8549L99.1795 90.4125M98.7537 91.8549L98.7439 91.8881M98.7537 91.8549V91.8774M98.7537 91.8549L99.1795 90.4125M98.7439 91.8881L98.7537 91.8774M98.7439 91.8881L98.7537 91.8774M65.0769 79.7661C64.4233 79.789 63.7855 80.0325 63.2654 80.4389C63.2791 80.4446 63.292 80.4505 63.3045 80.4555C63.6998 80.6143 63.9689 80.6466 64.0428 80.6547C64.1311 80.6645 64.3126 80.6789 64.6023 80.643C64.6986 80.6311 64.8737 80.6028 65.1033 80.5434L65.0769 79.7661ZM65.2693 80.4965C65.3277 80.479 65.3897 80.4628 65.4529 80.4409C65.6057 80.3879 65.9313 80.2667 66.3299 80.0327C66.0309 79.8653 65.6756 79.7631 65.2693 79.7631V80.4965Z" fill="white" stroke="white" stroke-width="11"/>
<path d="M40.9391 59.2987C44.0579 59.262 46.6381 60.9731 48.0872 62.9421C49.6019 65.0001 50.8073 68.8844 48.1172 72.3071L48.1192 72.308C46.8878 73.9013 44.6031 76.4799 43.2892 77.9057C42.6602 78.6158 41.8193 79.5548 40.9964 80.4717C40.4416 81.0899 39.8962 81.6997 39.4165 82.2369L46.6131 88.3899C49.5545 90.9045 50.6226 94.7441 49.5035 98.1826C48.3543 101.713 45.0802 104.217 41.0053 104.23L41.0004 104.229C39.9216 104.232 38.8844 104.238 37.8888 104.247C35.4371 104.27 32.4294 103.659 29.9348 101.535C29.579 101.232 29.2325 100.917 28.8934 100.592C27.6656 102.86 25.4001 104.563 22.4608 104.818L22.4618 104.82C21.3186 104.933 20.13 105.01 18.8994 105.053C17.6686 105.096 16.4579 105.103 15.2681 105.073L15.2504 105.072C10.8178 104.946 7.46716 101.485 7.08363 97.3569C6.63006 92.4726 6.43526 87.5677 6.49948 82.6437L6.49957 82.6183L6.50063 82.5929C6.58433 78.8369 6.58212 75.0761 6.49458 71.3108C6.36042 65.5399 10.8167 60.2077 17.1039 60.1545C17.1151 60.1543 17.1269 60.1544 17.1381 60.1543C17.1602 60.1541 17.1823 60.1529 17.2045 60.1529L17.2036 60.1549C20.9972 60.1217 24.646 62.0402 26.6902 65.2038C26.866 64.9908 27.0423 64.778 27.2181 64.5649L27.2705 64.5005L27.326 64.439C27.5983 64.1286 27.8777 63.8191 28.1643 63.5117C30.754 60.7346 34.2359 59.6203 37.3295 59.4931C38.0361 59.4641 38.7631 59.4241 39.5102 59.373C39.8876 59.3472 40.263 59.3252 40.6355 59.3073L40.9391 59.2987Z" fill="white" stroke="white" stroke-width="11"/>
<path d="M124.115 31.1879C124.115 31.1903 124.117 31.195 124.119 31.2026C124.734 34.0337 124.023 36.8752 122.088 38.9711C123.459 40.0607 124.56 41.6125 124.992 43.6938L125.075 44.1528L125.117 44.4467C125.305 45.9173 125.205 47.3851 124.835 48.812L124.831 48.8247L124.828 48.8373C124.098 51.5929 122.533 53.894 120.473 55.7465C118.424 57.5892 115.921 58.9481 113.165 59.9497L113.153 59.9545L113.14 59.9584C110.288 60.9797 107.191 61.4659 103.922 61.517C101.82 61.6783 99.6832 61.6733 97.5144 61.5043V61.5034C94.9187 61.333 93.5983 60.8511 92.1433 60.4594L92.0983 60.4477L92.0544 60.435C90.5285 59.9969 89.4058 59.389 88.4284 58.6391C88.0527 58.3509 87.6848 58.0264 87.5466 57.9077C87.3639 57.7507 87.2595 57.6665 87.1511 57.5883L87.1042 57.5541L87.0573 57.519C86.2112 56.8813 85.3008 56.0487 84.572 55.31C84.1969 54.9298 83.8129 54.5167 83.4694 54.1069C83.2064 53.793 82.6817 53.1508 82.2927 52.3745C82.2422 52.2737 82.1864 52.1736 81.9938 51.8149C81.8371 51.5229 81.6254 51.1237 81.4167 50.6782C81.0635 49.9242 80.4175 48.4358 80.3425 46.7026C80.29 45.4902 80.2374 44.1425 80.1852 42.6606L80.1823 42.5639V37.3383L80.1843 37.2631C80.2036 36.5516 80.212 34.9271 80.281 33.643C80.3176 32.9597 80.3783 32.1743 80.4958 31.4223C80.5857 30.8469 80.8021 29.5917 81.4743 28.4125L81.6618 28.0659C81.6784 28.0326 81.6892 28.0104 81.695 27.9975C81.6979 27.9911 81.6997 27.9865 81.7009 27.9838L81.7028 27.9799V27.978C81.7038 27.9752 81.7054 27.9705 81.7077 27.9633C81.7228 27.9167 81.7349 27.8747 81.7839 27.7104L81.8386 27.5268L81.906 27.3481C82.2351 26.4712 82.6569 25.6277 83.1784 24.8315C83.8695 23.6797 84.6957 22.6258 85.6452 21.6743L85.7165 21.602L85.7907 21.5327C86.6419 20.7406 87.576 20.0492 88.572 19.4467C88.7251 19.2919 88.8865 19.1446 89.0573 19.0073C89.6202 18.5547 90.1706 18.2862 90.571 18.1254C90.9233 17.984 91.2455 17.8929 91.4997 17.8315C92.2754 17.6238 93.0668 17.451 93.8727 17.311V17.31C93.8958 17.3056 93.9191 17.3027 93.9421 17.2983C93.9607 17.2951 93.9791 17.2907 93.9977 17.2875V17.2885C96.7337 16.7695 99.468 16.5559 102.193 16.6635C104.852 16.7685 107.405 17.1369 109.835 17.7914L109.836 17.7905C110.552 17.9709 110.706 17.9486 111.731 18.1108C112.846 18.2872 114.057 18.5948 115.541 19.3911C117.647 20.5214 119.538 21.9371 121.051 23.7123C122.235 25.0772 122.907 26.7136 123.285 27.8178C123.697 29.0235 123.968 30.2338 124.115 31.1879ZM102.778 37.7397C102.755 38.6406 102.743 39.5732 102.743 40.5375C102.743 41.4004 102.778 42.1334 102.833 42.7485C103.141 41.563 103.732 40.5456 104.454 39.726C103.802 39.1739 103.228 38.5105 102.778 37.7397ZM87.1442 21.8813C87.0635 22.1291 87.0507 22.2338 87.0905 22.0776C87.0994 22.0425 87.1172 21.9744 87.1442 21.8813Z" fill="white" stroke="white" stroke-width="11"/>
<path d="M63.8163 16.8042C64.4197 16.8119 65.1801 16.8227 66.0975 16.8344C66.5562 16.8264 67.6207 16.8119 68.4276 16.7973C72.9268 16.716 75.9489 19.696 77.1815 22.9194C77.3435 23.1569 77.5694 23.5082 77.7948 23.9682C78.0027 24.3928 78.168 24.8281 78.3084 25.2768C78.6855 26.3686 79.0566 27.5259 79.4227 28.7466C79.8325 29.9603 80.2209 31.1294 80.5868 32.2534C80.9444 33.352 81.2771 34.3489 81.5858 35.2446L82.3563 37.5005L82.3807 37.5747L82.4032 37.6499L86.5077 51.1391C88.0435 56.1874 84.4346 61.2907 79.243 61.603C79.0392 61.6288 78.8867 61.6492 78.7372 61.6704C78.5674 61.6944 78.2538 61.7406 77.8973 61.7671C77.1918 61.8194 76.4855 61.7802 75.7313 61.7427V61.7417C74.8123 61.7101 74.0962 61.6469 73.3348 61.476C72.6486 61.3221 72.8141 61.3381 72.6082 61.2983C69.645 61.2039 66.5025 59.5191 65.1678 56.187C65.1397 56.1167 65.1116 56.0461 65.0838 55.9751L65.0741 55.9507C64.344 58.8411 61.9701 60.0816 61.1209 60.4555C59.7454 61.0613 58.3097 61.3304 56.9168 61.3305C56.8622 61.3305 56.8087 61.3305 56.7577 61.3305C56.7533 61.3308 56.7487 61.3312 56.744 61.3315C56.6351 61.3386 56.46 61.348 56.244 61.3471C56.0284 61.3462 55.8215 61.336 55.62 61.3178C55.5854 61.3147 55.443 61.3034 55.1161 61.2856C54.6763 61.2617 54.3105 61.2328 53.9676 61.185C53.9338 61.1803 53.9016 61.1741 53.8709 61.1694C53.8404 61.1685 53.8025 61.1675 53.7567 61.1665C53.4767 61.1605 53.0062 61.1553 52.1942 61.1528H52.1405C52.1243 61.1528 51.8913 61.1513 51.4686 61.1489C51.0512 61.1466 50.5003 61.1437 49.9598 61.1391C48.0802 61.1232 45.826 60.388 44.3289 58.3247C42.8789 56.3259 42.8516 54.058 43.2713 52.395L43.4959 51.5239C43.7392 50.5991 44.0368 49.5149 44.3866 48.2788C44.8507 46.6389 45.3904 44.7631 46.0047 42.6528L46.0174 42.6079L46.0311 42.5639C46.7183 40.3443 47.5032 38.0071 48.3836 35.5552C49.2582 33.1195 50.2063 30.593 51.2264 27.976C51.4763 27.3351 51.6673 26.8254 51.8387 26.3647C52.0061 25.915 52.1734 25.4614 52.3514 25.0034C52.4419 24.7707 53.1107 22.7631 53.785 21.4594C54.3271 20.4116 56.3736 16.7094 60.8016 16.7661C61.1858 16.771 63.1919 16.7962 63.8163 16.8042ZM65.3797 36.7651C64.7322 36.7795 64.0971 37.0108 63.575 37.4048C63.5961 37.414 63.6153 37.4235 63.6336 37.4311C64.0286 37.596 64.2991 37.631 64.3729 37.6401C64.4617 37.651 64.6423 37.6682 64.9315 37.6362C65.0226 37.6261 65.1844 37.6021 65.3963 37.5522L65.3797 36.7651ZM65.5623 37.5102C65.6321 37.4909 65.7061 37.4703 65.7831 37.4448C65.9347 37.3945 66.2558 37.281 66.6502 37.0581C66.3486 36.8806 65.9876 36.7695 65.5721 36.7641L65.5623 37.5102Z" fill="white" stroke="white" stroke-width="11"/>
<path d="M35.7285 16.7055C37.0549 16.6322 40.5131 16.6216 41.3886 16.6567L41.3876 16.6577C45.6356 16.7716 48.8294 20.1826 49.0419 24.1655L50.5849 53.0893C50.8064 57.2406 47.7266 61.3644 42.9628 61.5366L42.9619 61.5356C42.0538 61.57 41.1455 61.5883 40.2373 61.5883H35.0732C34.3889 61.5883 33.8628 61.6031 33.4755 61.6264L33.3105 61.6362H33.1445C30.9462 61.6362 28.9892 60.3505 28.0869 58.4155C26.745 60.2716 24.602 61.6362 21.7734 61.6362C20.7544 61.6362 19.7357 61.5994 18.7177 61.5258C17.8832 61.4655 17.0993 61.4205 16.3662 61.3911H16.3535C16.3471 61.3909 16.299 61.389 16.1962 61.3881C16.0878 61.3872 15.9487 61.388 15.7841 61.3891C13.2941 61.4062 11.0999 60.352 9.55952 59.0424C8.02591 57.7385 6.511 55.6342 6.27534 52.9086L6.26851 52.8266L6.26363 52.7446C6.1737 51.152 6.08441 49.3861 5.99507 47.4487V47.4448C5.90598 45.4806 5.81646 43.4049 5.72749 41.2182L5.72554 41.1625L5.72456 41.1069C5.68024 38.9279 5.6351 36.7487 5.59077 34.5698V34.5678C5.54578 32.3234 5.52339 30.1716 5.52339 28.1127V28.0532L5.52437 27.9936C5.54394 27.0879 5.5321 26.4707 5.51851 25.8354C5.50449 25.1801 5.48744 24.4523 5.51363 23.4868L5.52144 23.2006L5.55855 22.9174C6.00237 19.5524 8.87138 17.0366 12.2656 17.0366H13.1894C13.383 17.0366 13.5621 17.0446 13.7207 17.0551L14.1289 17.0913L14.458 17.1157C14.6093 17.1242 14.7994 17.1326 15.0175 17.1381C15.4429 17.1489 15.7892 17.1449 15.9394 17.1381H15.9541C16.703 17.1063 17.4297 17.0742 18.1337 17.0424H18.1416L18.1484 17.0414C18.975 17.0063 19.7852 16.9887 20.5771 16.9887L20.9902 16.9985C23.8002 17.1386 25.933 18.7019 27.1718 20.7163C28.2598 18.7842 30.1777 17.2691 32.7812 16.937L32.7998 16.934L32.8193 16.9321C33.7733 16.8171 34.7434 16.742 35.7285 16.7045V16.7055Z" fill="white" stroke="white" stroke-width="11"/>
<g filter="url(#filter0_d_21_1024)">
<path d="M111.722 80.8043C111.761 80.85 112.202 80.8997 112.763 80.9536C114.412 81.112 116.343 81.0608 117.621 82.1135C117.643 82.1319 117.666 82.1505 117.688 82.1696C118.49 82.7688 119.158 83.4152 119.693 84.109C120.281 84.7713 120.681 86.5124 120.895 87.3323C121.109 88.1523 121.056 89.0668 120.735 90.076C120.307 91.5582 119.479 92.7723 118.25 93.7184C117.074 94.633 115.631 95.3425 113.92 95.8471C112.21 96.3517 110.313 96.6986 108.228 96.8878C106.144 97.0455 103.979 97.1243 101.734 97.1243C99.5429 97.1559 97.3248 97.1243 95.08 97.0297C92.8887 96.9351 93.8309 96.8721 91.9068 96.8405C91.5861 96.8405 92.2654 96.8405 91.9447 96.8405C89.0973 96.8405 87.0267 94.7907 86.9163 91.9454C86.7378 87.3386 86.7795 84.6356 86.9025 80.5205C87.0629 75.1278 87.1718 74.1235 87.0115 68.6362C86.9949 66.056 88.8601 63.8338 91.4264 63.5656C92.2017 63.4846 92.992 63.4124 93.7973 63.349C96.2024 63.1598 98.5808 63.0968 100.933 63.1598C103.284 63.2229 105.529 63.4279 107.667 63.7748C109.858 64.1217 111.782 64.6893 113.439 65.4777C115.096 66.2346 116.406 67.228 117.368 68.4579C118.33 69.6563 118.811 71.1385 118.811 72.9045C118.811 74.229 118.41 75.522 117.608 76.7835C117.142 77.5702 116.768 78.1535 116.294 78.7413C115.67 79.5158 114.823 80.0911 113.86 80.3433C112.632 80.6651 111.644 80.7123 111.722 80.8043ZM105.823 89.9814C106.571 89.7922 107.213 89.5084 107.747 89.1299C108.335 88.6569 108.602 88.0892 108.549 87.427C108.549 86.7647 108.362 86.1655 107.988 85.6294C107.667 85.251 107.186 84.9198 106.545 84.636C105.903 84.3206 105.235 84.1157 104.54 84.021C103.525 83.8634 102.483 83.7845 101.414 83.7845C100.934 83.7704 100.459 83.753 99.9898 83.7325C98.9643 83.6877 97.991 84.2594 97.7257 85.251C97.5653 85.8501 97.4584 86.4651 97.405 87.0958C97.405 87.695 97.4852 88.2784 97.6455 88.8461C97.7963 89.38 98.0654 89.8303 98.4526 90.1968C98.5011 90.2427 98.5606 90.275 98.6246 90.2939C98.6665 90.3062 98.7099 90.3125 98.7535 90.3126C99.4814 90.3135 100.234 90.3292 101.013 90.3598C101.868 90.3598 102.696 90.3441 103.498 90.3125C104.353 90.2494 105.128 90.1391 105.823 89.9814ZM105.903 76.7362C106.651 76.4839 107.239 76.1212 107.667 75.6482C108.041 75.2697 108.362 74.8282 108.629 74.3237C108.896 73.8191 108.816 73.3145 108.388 72.8099C107.961 72.3053 107.4 71.9269 106.705 71.6746C106.064 71.3908 105.315 71.1858 104.46 71.0597C103.391 70.9335 102.242 70.8704 101.013 70.8704C100.901 70.8674 100.79 70.8657 100.682 70.8653C99.145 70.8592 98.1952 72.3455 97.886 73.8506C97.8491 74.0904 97.8292 74.3318 97.8263 74.575C97.8074 76.1564 99.3519 77.1544 100.933 77.2092C101.841 77.2408 102.723 77.225 103.578 77.1619C104.433 77.0988 105.208 76.9569 105.903 76.7362Z" fill="#DF88D5"/>
<path d="M76.0656 77.8959C76.4019 78.8223 76.6661 79.5571 76.8582 80.1002L80.8588 90.7942C81.1242 91.5037 81.2233 92.2646 81.1485 93.0183C80.9215 95.3047 79.1464 97.1631 76.849 97.1334C76.5718 97.1298 76.2907 97.1228 76.0056 97.1122C74.9782 97.0932 73.9847 97.0404 73.0251 96.9538C71.7981 96.843 70.7093 96.1516 70.0115 95.1362C69.9211 94.9758 69.8665 94.8868 69.8254 94.8184C69.5672 94.39 69.4651 93.8887 69.3679 93.398C69.2861 92.9847 69.1977 92.6108 69.0115 92.1362C68.7713 91.4014 68.8724 91.3138 68.5841 90.6429C68.5137 90.4788 68.4418 90.3205 68.3684 90.1679C67.9709 89.3409 67.124 88.8219 66.2064 88.8219C65.8702 88.8219 65.5579 88.8219 65.2697 88.8219C65.0295 88.8219 64.7413 88.8378 64.4051 88.8698C64.3102 88.8698 64.0397 88.8698 63.7007 88.8698C62.4391 88.8698 61.2224 89.497 60.8144 90.6908C60.6223 91.3617 60.4061 92.0805 60.166 92.8472C59.9738 93.582 59.7577 94.3008 59.5175 95.0037C59.2882 95.6746 58.9714 96.2727 58.5671 96.798C58.5306 96.8454 58.4718 96.8688 58.4167 96.8922C58.4158 96.8925 58.415 96.8929 58.4141 96.8933C58.3803 96.908 58.3571 96.9205 58.3202 96.9205C58.3099 96.9205 58.2879 96.9213 58.2777 96.9229C57.8839 96.9844 56.9281 96.9836 55.4105 96.9205C53.8733 96.8566 55.4716 96.8407 52.2052 96.8726C52.2017 96.8726 52.1803 96.8665 52.1434 96.8551C50.0236 96.2019 49.0581 94.1151 49.5654 91.9558C49.8056 90.9334 50.1419 89.6076 50.5742 87.9783C51.0065 86.349 50.5109 87.4801 51.0873 85.3715C51.7117 83.2311 52.4323 80.9628 53.2489 78.5668C54.0655 76.1707 54.9541 73.6788 55.9148 71.0911C56.419 69.7331 56.6742 68.9303 56.9695 68.1046C57.5836 66.3878 58.3426 63.3279 60.166 63.3279C60.5502 63.3279 62.5557 63.3279 63.1802 63.3279C63.8046 63.3279 64.5972 63.3279 65.5579 63.3279C66.0499 63.3123 66.9674 63.2891 67.9623 63.2583C69.7295 63.2037 71.0381 64.3761 71.5984 66.053C71.9346 66.8836 72.2709 66.8421 72.6071 67.9283C72.9914 68.9825 73.3757 70.1167 73.7599 71.3307C74.1923 72.5447 74.6006 73.7108 74.9849 74.8289C75.3691 75.9471 75.7294 76.9694 76.0656 77.8959ZM65.2697 83.263C66.6983 83.213 67.7851 81.9246 67.5148 80.5209C67.2268 79.0257 66.9588 77.7833 66.7108 76.7937C66.3745 75.2602 66.0623 74.2219 65.7741 73.6788C65.5339 73.1357 63.7686 73.0239 63.4804 73.3434C63.2402 73.6309 63 74.2379 62.7599 75.1644C62.5677 76.0908 62.3275 77.2569 62.0393 78.6626C62.0125 78.8197 61.9809 78.9985 61.9458 79.1922C61.5666 81.2898 63.1381 83.263 65.2697 83.263Z" fill="#DF88D5"/>
</g>
<g filter="url(#filter1_d_21_1024)">
<path d="M34.5611 77.4174C32.688 79.535 31.8686 81.0203 34.0175 82.8574L43.0392 90.5701C45.6423 92.7955 44.4124 96.7185 40.9877 96.7295C39.8969 96.7321 38.8467 96.7382 37.837 96.7476C36.2685 96.7624 34.6955 96.3648 33.5014 95.3477C33.0539 94.9666 32.6197 94.5593 32.1988 94.1259C31.1952 93.0615 30.2173 91.9637 29.265 90.8328C28.3664 89.7 27.4684 88.5833 26.5709 87.4828C26.3697 87.236 26.1687 86.995 25.9678 86.7596C25.2165 85.879 23.876 86.4186 23.9164 87.5755C24.0072 88.6395 24.0987 89.7196 24.1906 90.816C24.2826 91.9123 24.3472 92.9934 24.3844 94.0593C24.3927 94.1561 24.4007 94.2522 24.4085 94.3477C24.5336 95.8848 23.4609 97.2442 21.922 97.3468C20.9054 97.447 19.834 97.5168 18.7079 97.5561C17.5817 97.5954 16.4813 97.6015 15.4065 97.5744C13.8964 97.5314 12.6995 96.3522 12.5598 94.848C12.1242 90.1573 11.9373 85.4464 11.999 80.7153C12.0845 76.8756 12.0826 73.0314 11.9931 69.1828C11.9237 66.1972 14.2154 63.6511 17.2018 63.6526C20.2292 63.599 22.8293 65.8696 22.8715 68.8972C22.8735 69.039 22.8751 69.1813 22.8764 69.324C22.8938 71.3608 22.9883 73.2978 23.1598 75.1352C23.1626 75.214 23.2663 75.0556 23.3256 75.0035C23.4007 74.9374 23.4761 74.8797 23.5519 74.8304C24.6476 73.919 25.6349 72.979 26.5138 72.0105C27.3927 71.042 28.2175 70.0592 28.988 69.0621C29.8122 68.0631 30.6364 67.0642 31.4605 66.0652C31.6949 65.798 31.9369 65.5305 32.1866 65.2628C33.5633 63.7863 35.5383 63.0718 37.5553 62.9889C38.3142 62.9577 39.091 62.9149 39.8855 62.8605C40.2265 62.8372 40.5642 62.8175 40.8986 62.8014C43.0657 62.6975 45.1327 65.2595 43.767 66.9452C42.6883 68.3411 40.5378 70.7751 39.2445 72.1785C38.0048 73.58 35.8007 76.0158 34.5611 77.4174Z" fill="#D4D718"/>
</g>
<g filter="url(#filter2_d_21_1024)">
<path d="M99.9587 28.1078C99.2345 28.1997 98.6655 28.3682 98.2517 28.6132C98.185 28.6527 98.1183 28.7113 98.0516 28.789C97.9724 28.8813 97.914 29.0115 97.8519 29.1161C97.8062 29.1932 97.7524 29.2428 97.7212 29.3267C97.6394 29.5465 97.5576 30.0438 97.4758 30.8186C97.4241 31.7988 97.3724 32.9628 97.3206 34.3105C97.2689 35.6582 97.2431 37.0673 97.2431 38.5375C97.2431 39.9772 97.3206 41.233 97.4758 42.3051C97.631 43.1934 98.0189 44.0664 98.6397 44.924C99.3121 45.751 100.398 46.2871 101.898 46.5321C103.036 46.5934 104.097 46.5015 105.08 46.2564C106.114 45.9808 106.89 45.5366 107.407 44.924C107.976 44.2195 108.209 43.4844 108.105 42.7186C108.015 41.3245 109.397 40.4694 110.793 40.4223C110.802 40.422 110.812 40.4216 110.821 40.4213C111.752 40.3907 112.683 40.3754 113.614 40.3754C114.545 40.3754 115.451 40.3907 116.33 40.4213C117.906 40.4732 119.399 41.4336 119.64 42.9918C119.765 43.8044 119.722 44.6169 119.511 45.4294C119.097 46.9916 118.192 48.4006 116.795 49.6564C115.399 50.9123 113.563 51.9537 111.287 52.7808C109.062 53.5772 106.528 53.9907 103.683 54.0213C101.821 54.1745 99.9069 54.1745 97.9414 54.0213C95.9758 53.8988 95.2795 53.6078 93.5726 53.1483C91.8656 52.6582 91.5573 51.9844 90.3677 51.1267C89.2297 50.2691 87.5443 48.5771 87.2103 47.9105C86.8224 47.1362 85.8892 45.6591 85.8375 44.4646C85.7858 43.27 85.734 41.9375 85.6823 40.4673C85.6823 38.9664 85.6823 37.2817 85.6823 35.4132C85.734 33.5141 85.6823 30.1362 86.2523 29.1362C86.7958 28.1828 86.8999 27.8015 87.0551 27.2808C87.262 26.7294 87.5207 26.224 87.831 25.7646C88.2965 24.9682 88.8655 24.233 89.538 23.5591C90.2621 22.8853 91.1156 22.288 92.0984 21.7673C92.6674 21.5222 92.1481 21.3231 92.8205 21.17C93.4929 20.9862 94.1912 20.833 94.9154 20.7105C97.2948 20.251 99.6483 20.0673 101.976 20.1591C104.304 20.251 106.476 20.5727 108.493 21.124C110.562 21.6447 111.285 21.3492 112.94 22.2375C114.595 23.1258 115.914 24.1519 116.897 25.3159C117.88 26.4492 118.474 28.6898 118.681 30.0375C118.698 30.1482 118.72 30.259 118.744 30.37C119.269 32.7897 117.453 34.4157 114.977 34.4609C114.391 34.4717 113.807 34.4675 113.226 34.4483C112.036 34.3879 110.813 34.301 109.555 34.1877C108.353 34.0793 107.337 33.2174 107.252 32.0132C107.252 31.2781 107.123 30.6042 106.864 29.9916C106.605 29.3483 106.114 28.8276 105.39 28.4294C104.717 28.0312 103.631 27.8474 102.131 27.8781C101.459 27.9393 100.735 28.0159 99.9587 28.1078Z" fill="#DF88D5"/>
</g>
<g filter="url(#filter3_d_21_1024)">
<path d="M76.3859 35.0362C76.7067 35.9669 76.9586 36.705 77.1416 37.2505L81.2456 50.7403C81.7545 52.4131 80.5116 54.1049 78.7631 54.1192C77.319 54.2923 77.733 54.3358 76.005 54.2497C74.3729 54.1986 74.6109 54.0631 73.3519 53.8433C73.1932 53.8156 73.0313 53.8034 72.8702 53.8033C71.7424 53.8028 70.6933 53.1889 70.2739 52.1419C70.2513 52.0855 70.2287 52.0284 70.2061 51.9706C69.9777 51.2648 69.7255 50.5426 69.4496 49.8042C69.2217 49.0664 68.9693 48.3602 68.6923 47.6857C68.6249 47.5214 68.5559 47.3628 68.4854 47.2098C68.1015 46.377 67.2622 45.8461 66.3453 45.8344C66.009 45.83 65.6969 45.826 65.4087 45.8223C65.1685 45.8192 64.8801 45.8315 64.5433 45.8591C64.4488 45.8579 64.1797 45.8545 63.8421 45.8501C62.5782 45.8339 61.3508 46.4445 60.9227 47.6338C60.7193 48.3022 60.4912 49.0181 60.2382 49.7817C60.0338 50.5139 60.2634 49.9365 60.0115 50.6362C59.8296 51.1414 59.8798 51.9402 59.7556 52.5476C59.6704 52.9645 59.2939 53.2509 58.9045 53.4224C58.2768 53.6988 57.6021 53.8307 56.9162 53.8307C56.8265 53.8307 56.7403 53.8307 56.6623 53.8307C56.4189 53.8307 56.3557 53.8615 56.1134 53.8397C55.9837 53.828 55.767 53.8126 55.4152 53.7934C53.8793 53.7098 55.4781 53.663 52.2115 53.6529C52.1864 53.6526 51.0727 53.6479 50.0064 53.6389C48.8838 53.6294 48.329 52.8294 48.6037 51.7409C48.861 50.7218 49.2193 49.4004 49.6788 47.7769C50.1383 46.1533 50.6738 44.291 51.2854 42.1901C51.9455 40.0579 52.7039 37.7992 53.5604 35.4139C54.4169 33.0285 55.3471 30.5483 56.3509 27.9732C56.8803 26.6153 57.1582 25.8183 57.4779 24.9956C58.1369 23.3002 58.9124 20.2421 60.7312 20.2655C61.1155 20.2704 63.1207 20.2962 63.7451 20.3042C64.3695 20.3122 65.162 20.3224 66.1226 20.3348C66.6147 20.3255 67.5322 20.3141 68.5273 20.2961C70.2943 20.2642 71.601 21.4522 72.1336 23.1373C72.4559 23.9722 72.7762 23.9349 73.0942 25.0253C73.4609 26.0844 73.8262 27.2233 74.1901 28.4421C74.6021 29.6615 74.9909 30.8327 75.3565 31.9557C75.722 33.0787 76.0652 34.1055 76.3859 35.0362ZM65.5015 40.2641C66.9326 40.2324 68.0392 38.9591 67.7918 37.5492C67.5289 36.0513 67.2818 34.8062 67.0505 33.8139C66.7399 32.2763 66.445 31.2341 66.1659 30.6874C65.9348 30.1412 64.1716 30.0068 63.878 30.3225C63.6331 30.6069 63.3828 31.2107 63.1272 32.134C62.9196 33.0579 62.66 34.2208 62.3483 35.6226C62.3187 35.7802 62.2838 35.9597 62.2453 36.1542C61.8319 38.2423 63.3731 40.2367 65.5015 40.2641Z" fill="#DF88D5"/>
</g>
<g filter="url(#filter4_d_21_1024)">
<path d="M41.1684 20.1522C42.4529 20.1522 43.4813 21.176 43.5498 22.4586L45.0931 51.3826C45.1673 52.7724 44.1552 53.9898 42.7643 54.04C41.922 54.0721 41.0797 54.0881 40.2375 54.0881C39.4395 54.0881 35.8709 54.0881 35.0729 54.0881C34.3193 54.0881 33.6765 54.1041 33.1445 54.1362C33.1058 54.1362 33.0723 54.109 33.0645 54.0711C32.8501 53.034 32.6994 51.9661 32.6126 50.8676C32.5682 49.7139 32.5239 48.5763 32.4796 47.4547C32.4796 46.3332 32.4574 45.2116 32.4131 44.09C32.3695 42.9865 32.2615 41.9295 32.0891 40.9191C32.0837 40.8872 32.066 40.8589 32.0398 40.8399C32.0229 40.8278 32.0033 40.82 31.9827 40.8175C30.7075 40.6599 29.4324 40.581 28.1573 40.581C27.6769 40.581 26.7774 40.5967 25.7721 40.628C23.113 40.7109 24.1011 41.5738 24.1011 44.2342C24.1454 45.3237 24.1897 46.4133 24.2341 47.5028C24.2784 48.5924 24.2784 49.6659 24.2341 50.7234C24.2341 51.0339 24.2239 51.3444 24.2036 51.6549C24.1148 53.0109 23.1327 54.1362 21.7737 54.1362C20.8871 54.1362 20.0005 54.1041 19.1139 54.04C18.2273 53.976 17.385 53.9279 16.587 53.8958C16.4172 53.8886 16.1158 53.8863 15.746 53.8888C13.9116 53.9014 11.913 52.2626 11.755 50.435C11.6663 48.8647 11.5777 47.1183 11.489 45.1956C11.4003 43.2408 11.3117 41.1739 11.223 38.9948C11.1787 36.8157 11.1343 34.6366 11.09 32.4576C11.0457 30.2464 11.0235 28.1315 11.0235 26.1126C11.0678 24.0617 10.9672 23.2705 11.0115 21.6362C11.0945 21.007 11.6309 20.5367 12.2655 20.5367H13.1893C13.3003 20.5367 13.4106 20.5453 13.5209 20.5576C14.2385 20.6374 15.5327 20.6625 16.188 20.6329C16.9417 20.6008 17.6731 20.5688 18.3824 20.5367C19.136 20.5047 19.8675 20.4887 20.5768 20.4887C21.7897 20.4887 22.724 21.4618 22.8783 22.6648C23.0729 24.1818 23.1701 25.6675 23.1701 27.122C23.1701 29.1851 23.4311 30.25 23.9529 32.2629C23.9618 32.297 23.9927 32.3214 24.0279 32.3214C24.0324 32.3214 24.0368 32.3218 24.0411 32.3225C25.1476 32.5139 26.3423 32.5776 27.6254 32.5136C28.911 32.4175 30.1079 32.3374 31.2162 32.2733C31.2541 32.2733 31.2862 32.2442 31.2907 32.2066C31.5513 30.0405 31.6816 28.9772 31.6816 27.074C31.7131 25.7081 31.6999 24.2452 31.6419 22.6853C31.5998 21.5523 32.3523 20.536 33.477 20.3925C34.275 20.2964 35.0951 20.2323 35.9374 20.2003C36.7797 20.1362 40.3705 20.1202 41.1684 20.1522Z" fill="#D4D718"/>
</g>
<path fill-rule="evenodd" clip-rule="evenodd" d="M130.18 29.3853C130.384 27.7294 129.52 26.7699 128.41 26.0928C127.095 25.2903 125.596 25.0179 124.037 25.0982C121.944 25.2056 119.851 25.2686 117.757 25.3463C117.684 25.3491 117.609 25.3058 117.408 25.2461C117.738 24.9074 118.022 24.6302 118.289 24.338C118.734 23.8522 119.223 23.3945 119.596 22.8579C120.603 21.4135 121.558 19.9335 122.507 18.508C124.306 18.3513 126.038 18.2228 127.765 18.0411C128.668 17.9461 129.557 17.6948 130.461 17.6257C131.936 17.5126 133.388 17.5946 134.611 18.6155C135.309 19.1977 135.74 20.4494 135.438 21.2957C135.263 21.7851 135.032 22.2664 134.752 22.7039C133.965 23.9353 133.134 25.138 132.332 26.3597C131.833 27.1194 131.366 27.9006 130.862 28.6567C130.703 28.8937 130.469 29.0804 130.18 29.3853Z" fill="#93EEFE"/>
<path fill-rule="evenodd" clip-rule="evenodd" d="M104.805 10.0719C105.434 8.96639 106.024 8.05597 106.876 7.32738C108.32 6.09225 109.713 4.79618 111.19 3.60329C111.888 3.03957 112.693 2.57076 113.517 2.2108C114.527 1.76861 115.011 2.02115 115.533 2.99758C115.766 3.43466 116.042 3.85161 116.247 4.30125C116.654 5.1932 116.851 6.13742 116.74 7.11869C116.608 8.2821 116.673 9.41456 116.957 10.5609C117.147 11.3276 117.134 12.145 117.215 12.9637C116.903 13.1199 116.6 13.2475 116.322 13.4159C115.491 13.9189 114.757 14.5187 114.178 15.3242C113.537 16.2165 112.799 17.0382 112.135 17.9148C111.874 18.2596 111.7 18.6695 111.436 19.138C111.312 18.8884 111.196 18.7152 111.136 18.5242C110.705 17.1579 110.265 15.7939 109.868 14.4175C109.55 13.3169 109.066 12.3077 108.393 11.3851C108.279 11.2293 108.159 11.0778 108.053 10.9175C107.224 9.67159 106.37 9.41555 104.805 10.0719Z" fill="#93EEFE"/>
<path fill-rule="evenodd" clip-rule="evenodd" d="M114.329 22.6787C113.992 22.9142 113.798 23.0496 113.565 23.2129C112.437 22.7525 111.864 21.8032 111.555 20.6887C111.461 20.3508 111.586 19.9212 111.703 19.5631C111.988 18.6884 112.476 17.92 113.071 17.2177C113.553 16.6493 114.047 16.0889 114.49 15.4909C115.047 14.7374 115.789 14.2256 116.577 13.76C117.132 13.4313 117.638 13.435 118.166 13.8825C119.114 14.685 120.094 15.4489 121.077 16.2085C121.572 16.5919 121.822 17.1213 121.888 17.6925C121.933 18.0715 121.834 18.5306 121.64 18.8617C121.211 19.5984 120.677 20.2737 120.196 20.9811C119.949 21.3452 119.7 21.7118 119.494 22.0997C118.897 23.2195 117.929 24.0193 117.074 24.9136C116.965 25.0283 116.646 25.0525 116.48 24.9831C115.947 24.7607 115.415 24.5133 114.935 24.1962C114.712 24.0486 114.582 23.7301 114.463 23.4653C114.38 23.2792 114.388 23.0525 114.329 22.6787Z" fill="#93EEFE"/>
<path fill-rule="evenodd" clip-rule="evenodd" d="M118.4 25.8592C119.063 25.8636 119.689 25.8789 120.315 25.8704C122.078 25.846 123.843 25.7512 125.602 25.8103C126.323 25.8345 127.05 26.1391 127.746 26.3956C128.577 26.7025 129.179 27.3156 129.604 28.0874C129.896 28.6181 129.87 28.8402 129.464 29.2785C128.483 30.3396 126.828 30.848 125.537 30.256C124.612 29.8319 123.696 29.3693 122.837 28.8271C121.349 27.888 119.909 26.8741 118.4 25.8592Z" fill="#7DBDC8"/>
<path fill-rule="evenodd" clip-rule="evenodd" d="M110.894 19.893C109.056 18.3016 107.258 16.7632 105.485 15.1966C105.056 14.817 104.703 14.3492 104.327 13.9119C103.439 12.8792 104.012 11.0045 105.259 10.2737C105.845 9.93014 106.802 10.1764 107.176 10.7295C107.391 11.0482 107.593 11.3773 107.825 11.6834C108.675 12.8054 109.089 14.1163 109.501 15.435C109.936 16.8266 110.41 18.206 110.864 19.592C110.888 19.6646 110.88 19.748 110.894 19.893Z" fill="#7DBDC8"/>
<path d="M113.342 1.20181C113.881 0.99894 114.488 0.897699 115.092 1.14908C115.745 1.42033 116.135 2.00232 116.415 2.52603C116.522 2.72612 116.633 2.91322 116.767 3.14615C116.894 3.36693 117.034 3.61646 117.157 3.88541V3.88638C117.625 4.9126 117.868 6.03888 117.733 7.23111C117.614 8.28086 117.673 9.29371 117.927 10.32C118.042 10.7844 118.093 11.2461 118.125 11.6667C118.155 12.0691 118.169 12.3803 118.199 12.7243C118.42 12.8255 118.625 12.9607 118.813 13.1198C119.741 13.9062 120.706 14.6581 121.688 15.4176H121.689C122.397 15.9655 122.753 16.7136 122.865 17.4733C124.517 17.3323 126.086 17.2122 127.661 17.0465C128.064 17.0041 128.469 16.9264 128.93 16.8405C129.376 16.7576 129.872 16.6677 130.384 16.6286C131.921 16.5108 133.716 16.5653 135.252 17.8473C135.777 18.2856 136.151 18.9215 136.352 19.5514C136.552 20.1759 136.627 20.9375 136.379 21.6315C136.182 22.1861 135.918 22.7359 135.594 23.2419C134.808 24.4728 133.947 25.7213 133.168 26.9088C132.925 27.2785 132.69 27.6542 132.446 28.0417C132.204 28.426 131.954 28.8211 131.694 29.2116L131.693 29.2126C131.557 29.4153 131.402 29.5777 131.277 29.7028C131.134 29.846 131.039 29.9321 130.905 30.0739L128.816 32.2751L128.985 30.8981C127.829 31.5391 126.391 31.7474 125.12 31.1647C124.174 30.7311 123.214 30.2475 122.303 29.6725C120.8 28.7234 119.327 27.6879 117.842 26.6891L117.122 26.2038L116.413 25.9928C116.308 25.9748 116.199 25.9501 116.093 25.9059V25.9049C116.076 25.8976 116.058 25.8899 116.041 25.8825L115.537 25.7331L115.586 25.6823C115.185 25.4992 114.774 25.2879 114.383 25.0299C114.081 24.83 113.898 24.5564 113.793 24.3717C113.779 24.3483 113.768 24.3233 113.755 24.2995L113.692 24.3444L113.187 24.1383C111.663 23.5163 110.945 22.2327 110.591 20.9557L110.59 20.9538L110.239 20.6491C108.407 19.0628 106.6 17.5169 104.823 15.946C104.325 15.506 103.888 14.9354 103.569 14.5641C102.9 13.786 102.795 12.7838 102.979 11.9215L102.485 12.1286L103.935 9.57779C104.573 8.45542 105.235 7.41494 106.226 6.56705C107.446 5.52292 108.714 4.35978 110.006 3.28189L110.562 2.82486C111.339 2.19736 112.224 1.68476 113.116 1.29459L113.342 1.20181Z" stroke="white" stroke-width="2"/>
<defs>
<filter id="filter0_d_21_1024" x="47.4327" y="61.1362" width="77.5908" height="40" filterUnits="userSpaceOnUse" color-interpolation-filters="sRGB">
<feFlood flood-opacity="0" result="BackgroundImageFix"/>
<feColorMatrix in="SourceAlpha" type="matrix" values="0 0 0 0 0 0 0 0 0 0 0 0 0 0 0 0 0 0 127 0" result="hardAlpha"/>
<feOffset dx="1" dy="1"/>
<feGaussianBlur stdDeviation="1.5"/>
<feComposite in2="hardAlpha" operator="out"/>
<feColorMatrix type="matrix" values="0 0 0 0 0 0 0 0 0 0 0 0 0 0 0 0 0 0 0.61 0"/>
<feBlend mode="normal" in2="BackgroundImageFix" result="effect1_dropShadow_21_1024"/>
<feBlend mode="normal" in="SourceGraphic" in2="effect1_dropShadow_21_1024" result="shape"/>
</filter>
<filter id="filter1_d_21_1024" x="9.98749" y="60.7984" width="38.4499" height="40.7926" filterUnits="userSpaceOnUse" color-interpolation-filters="sRGB">
<feFlood flood-opacity="0" result="BackgroundImageFix"/>
<feColorMatrix in="SourceAlpha" type="matrix" values="0 0 0 0 0 0 0 0 0 0 0 0 0 0 0 0 0 0 127 0" result="hardAlpha"/>
<feOffset dx="1" dy="1"/>
<feGaussianBlur stdDeviation="1.5"/>
<feComposite in2="hardAlpha" operator="out"/>
<feColorMatrix type="matrix" values="0 0 0 0 0 0 0 0 0 0 0 0 0 0 0 0 0 0 0.61 0"/>
<feBlend mode="normal" in2="BackgroundImageFix" result="effect1_dropShadow_21_1024"/>
<feBlend mode="normal" in="SourceGraphic" in2="effect1_dropShadow_21_1024" result="shape"/>
</filter>
<filter id="filter2_d_21_1024" x="83.6823" y="18.1362" width="40.0274" height="40" filterUnits="userSpaceOnUse" color-interpolation-filters="sRGB">
<feFlood flood-opacity="0" result="BackgroundImageFix"/>
<feColorMatrix in="SourceAlpha" type="matrix" values="0 0 0 0 0 0 0 0 0 0 0 0 0 0 0 0 0 0 127 0" result="hardAlpha"/>
<feOffset dx="1" dy="1"/>
<feGaussianBlur stdDeviation="1.5"/>
<feComposite in2="hardAlpha" operator="out"/>
<feColorMatrix type="matrix" values="0 0 0 0 0 0 0 0 0 0 0 0 0 0 0 0 0 0 0.61 0"/>
<feBlend mode="normal" in2="BackgroundImageFix" result="effect1_dropShadow_21_1024"/>
<feBlend mode="normal" in="SourceGraphic" in2="effect1_dropShadow_21_1024" result="shape"/>
</filter>
<filter id="filter3_d_21_1024" x="46.5343" y="18.2653" width="38.8264" height="40.0273" filterUnits="userSpaceOnUse" color-interpolation-filters="sRGB">
<feFlood flood-opacity="0" result="BackgroundImageFix"/>
<feColorMatrix in="SourceAlpha" type="matrix" values="0 0 0 0 0 0 0 0 0 0 0 0 0 0 0 0 0 0 127 0" result="hardAlpha"/>
<feOffset dx="1" dy="1"/>
<feGaussianBlur stdDeviation="1.5"/>
<feComposite in2="hardAlpha" operator="out"/>
<feColorMatrix type="matrix" values="0 0 0 0 0 0 0 0 0 0 0 0 0 0 0 0 0 0 0.61 0"/>
<feBlend mode="normal" in2="BackgroundImageFix" result="effect1_dropShadow_21_1024"/>
<feBlend mode="normal" in="SourceGraphic" in2="effect1_dropShadow_21_1024" result="shape"/>
</filter>
<filter id="filter4_d_21_1024" x="8.99995" y="18.1362" width="40.097" height="40" filterUnits="userSpaceOnUse" color-interpolation-filters="sRGB">
<feFlood flood-opacity="0" result="BackgroundImageFix"/>
<feColorMatrix in="SourceAlpha" type="matrix" values="0 0 0 0 0 0 0 0 0 0 0 0 0 0 0 0 0 0 127 0" result="hardAlpha"/>
<feOffset dx="1" dy="1"/>
<feGaussianBlur stdDeviation="1.5"/>
<feComposite in2="hardAlpha" operator="out"/>
<feColorMatrix type="matrix" values="0 0 0 0 0 0 0 0 0 0 0 0 0 0 0 0 0 0 0.61 0"/>
<feBlend mode="normal" in2="BackgroundImageFix" result="effect1_dropShadow_21_1024"/>
<feBlend mode="normal" in="SourceGraphic" in2="effect1_dropShadow_21_1024" result="shape"/>
</filter>
</defs>
</svg>
