<svg width="256" height="71" viewBox="0 0 256 71" fill="none" xmlns="http://www.w3.org/2000/svg">
<path d="M173.102 62.7975C173.211 62.7503 173.448 62.6445 173.68 62.5143C174.084 62.2871 174.787 61.8315 175.414 61.0172C176.193 60.0053 176.775 58.8917 177.184 57.7194C177.303 57.9837 177.442 58.254 177.602 58.5211C177.635 58.5754 177.64 58.5821 177.655 58.6081C177.666 58.6268 177.683 58.656 177.709 58.7018C177.789 58.8435 177.875 58.9819 177.967 59.1159C179.5 61.3474 182.007 63.0235 185.018 63.2956C186.117 63.3948 187.242 63.455 188.393 63.4762V63.4753C188.686 63.4854 188.977 63.494 189.267 63.4977C192.462 63.539 195.059 62.096 196.789 59.9899C198.648 61.95 201.277 63.1675 204.306 63.2008V63.2038H204.307V63.2047H204.34C205.173 63.2188 205.226 63.2366 205.264 63.2409C205.663 63.286 206.102 63.3363 207.331 63.3893H207.337C209.656 63.487 211.951 63.5191 214.223 63.4879V63.4889C216.596 63.4889 218.9 63.4058 221.132 63.237C221.159 63.2349 221.186 63.2326 221.214 63.2301C223.597 63.0138 225.856 62.6092 227.965 61.987C230.208 61.3252 232.3 60.3347 234.114 58.9235C236.216 57.2986 237.699 55.1496 238.464 52.6051L238.465 52.6061C239.022 50.8533 239.24 48.8577 238.706 46.8092C238.635 46.5364 238.42 45.6534 238.156 44.8356C237.978 44.2829 237.487 42.7622 236.445 41.5016C236.027 40.9706 235.575 40.4717 235.093 40.0055C236.166 38.1261 236.799 36.0286 236.799 33.7692C236.799 30.9689 236.017 28.2397 234.186 25.9333H234.188C234.178 25.9194 234.166 25.9061 234.155 25.8922C234.152 25.8881 234.149 25.8837 234.145 25.8795H234.144C232.579 23.8985 230.562 22.4269 228.29 21.3766L228.291 21.3756C226.071 20.3192 223.622 19.6204 221.015 19.2077C218.621 18.8203 216.137 18.5949 213.568 18.526C211.019 18.4577 208.447 18.5262 205.854 18.7301C205.429 18.7636 205.007 18.7993 204.589 18.8376L203.343 18.9596C197.775 19.5417 193.967 24.318 194 29.5358C194 29.5776 194.001 29.62 194.002 29.6618C194.115 33.5352 194.09 35.0164 194.006 37.6667C193.918 37.4222 193.825 37.161 193.725 36.8844C193.401 35.9926 193.051 35 192.675 33.9059C192.293 32.7941 191.888 31.6381 191.461 30.4381C191.074 29.2185 190.681 28.0631 190.285 26.9733C190.132 26.509 189.951 26.0594 189.725 25.6227C189.491 25.1734 189.258 24.8292 189.089 24.5944C187.813 21.4338 184.788 18.4862 180.28 18.6256C179.487 18.6502 178.444 18.6779 177.974 18.692H172.654C168.248 18.6921 166.237 22.3789 165.692 23.4586C164.994 24.8431 164.408 26.7569 164.279 27.1169C163.893 28.1965 163.76 28.6598 163.247 30.0417C162.271 32.6716 161.365 35.2101 160.531 37.6569C159.692 40.1202 158.946 42.4673 158.296 44.696L158.27 44.7858C158.114 45.3591 157.992 45.8442 157.911 46.2692C157.868 46.4958 157.829 46.7386 157.803 46.9967C157.791 47.107 157.786 47.2089 157.78 47.3014C157.771 47.338 157.76 47.3816 157.747 47.4323C157.418 48.6727 157.138 49.7602 156.91 50.6881L156.699 51.5622C155.651 56.0237 157.652 61.3231 163.012 62.9753C163.043 62.9848 163.104 63.0041 163.175 63.0241C163.205 63.0326 163.282 63.0539 163.38 63.0778C163.426 63.089 163.526 63.1138 163.654 63.1383C163.672 63.142 164.125 63.2369 164.693 63.237C164.711 63.237 164.729 63.2371 164.747 63.237C165.569 63.2289 166.069 63.2242 166.39 63.2223C166.536 63.2214 166.627 63.2203 166.68 63.2204C166.698 63.2219 166.719 63.2242 166.743 63.2262C166.967 63.2453 167.241 63.2621 167.671 63.2799C168.858 63.3293 170.231 63.372 171.257 63.2653C171.777 63.2239 172.238 63.1164 172.625 62.985C172.828 62.9161 172.985 62.8493 173.056 62.819C173.071 62.8123 173.087 62.8044 173.102 62.7975ZM173.102 62.7975C173.116 62.7916 173.126 62.7882 173.127 62.7878C173.135 62.7841 173.119 62.7902 173.102 62.7975ZM211.244 49.3961L211.242 50.7194M211.244 49.3961L211.668 49.277M211.244 49.3961L211.242 50.7194M211.244 49.3961L211.668 49.277M211.242 50.7194L211.232 50.7526M211.242 50.7194V50.7419M211.242 50.7194L211.668 49.277M211.242 50.7194L211.232 50.7526M211.242 50.7194V50.7419M211.242 50.7194L211.668 49.277M211.232 50.7526L211.242 50.7419M211.232 50.7526L211.242 50.7419M177.565 38.6305C176.912 38.6535 176.274 38.897 175.754 39.3034C175.768 39.3091 175.78 39.315 175.793 39.32C176.188 39.4788 176.457 39.5111 176.531 39.5192C176.62 39.5289 176.801 39.5433 177.091 39.5075C177.187 39.4956 177.362 39.4673 177.592 39.4079L177.565 38.6305ZM177.758 39.361C177.816 39.3434 177.878 39.3272 177.941 39.3053C178.094 39.2524 178.42 39.1312 178.818 38.8971C178.519 38.7298 178.164 38.6276 177.758 38.6276V39.361Z" fill="white" stroke="white" stroke-width="11" stroke-linejoin="round"/>
<path d="M153.686 18.1631C156.805 18.1264 159.385 19.8376 160.834 21.8065C162.349 23.8645 163.554 27.7489 160.864 31.1715L160.866 31.1724C159.635 32.7658 157.35 35.3444 156.036 36.7702C155.407 37.4803 154.566 38.4193 153.743 39.3362C153.188 39.9544 152.643 40.5642 152.163 41.1014L159.36 47.2543C162.301 49.769 163.369 53.6085 162.25 57.0471C161.101 60.5778 157.827 63.0814 153.752 63.0945L153.747 63.0937C152.668 63.0962 151.631 63.1021 150.635 63.1114C148.184 63.1345 145.176 62.5239 142.681 60.3991C142.326 60.0961 141.979 59.7811 141.64 59.4563C140.412 61.7244 138.147 63.4276 135.207 63.6824L135.209 63.6844C134.065 63.797 132.877 63.8743 131.646 63.9172C130.415 63.9602 129.205 63.9676 128.015 63.9375C128.009 63.9374 128.003 63.9363 127.997 63.9362C123.564 63.8102 120.214 60.3495 119.83 56.2214C119.377 51.337 119.182 46.4321 119.246 41.5082L119.247 41.4573C119.331 37.7013 119.329 33.9406 119.241 30.1753C119.107 24.4044 123.563 19.0722 129.851 19.0189C129.862 19.0187 129.874 19.0189 129.885 19.0187C129.907 19.0186 129.929 19.0174 129.951 19.0174L129.95 19.0194C133.744 18.9862 137.393 20.9046 139.437 24.0683C139.613 23.8552 139.789 23.6425 139.965 23.4294L140.073 23.3035C140.345 22.9931 140.624 22.6836 140.911 22.3762C143.501 19.5991 146.983 18.4847 150.076 18.3576C150.783 18.3286 151.51 18.2886 152.257 18.2375C152.634 18.2116 153.01 18.1897 153.382 18.1718L153.686 18.1631Z" fill="white" stroke="white" stroke-width="11" stroke-linejoin="round"/>
<path d="M124.115 34.1879C124.115 34.1903 124.117 34.195 124.119 34.2026C124.734 37.0337 124.023 39.8752 122.088 41.9711C123.459 43.0607 124.56 44.6125 124.992 46.6938L125.075 47.1528L125.117 47.4467C125.305 48.9173 125.205 50.3851 124.835 51.812C124.832 51.8203 124.83 51.829 124.828 51.8373C124.098 54.5929 122.533 56.894 120.473 58.7465C118.424 60.5892 115.921 61.9481 113.165 62.9496C113.157 62.9526 113.148 62.9555 113.14 62.9584C110.288 63.9797 107.191 64.4658 103.922 64.517C101.82 64.6783 99.6832 64.6733 97.5143 64.5043V64.5034C94.9187 64.333 93.5982 63.8511 92.1432 63.4594C92.1138 63.4515 92.0837 63.4434 92.0544 63.435C90.5285 62.9968 89.4058 62.389 88.4284 61.6391C88.0527 61.3509 87.6848 61.0264 87.5466 60.9077C87.3638 60.7507 87.2594 60.6665 87.1511 60.5883C87.1195 60.5656 87.0884 60.5424 87.0573 60.519C86.2112 59.8813 85.3008 59.0487 84.572 58.31C84.1968 57.9298 83.8129 57.5167 83.4694 57.1069C83.2064 56.793 82.6817 56.1508 82.2927 55.3745C82.2422 55.2737 82.1864 55.1736 81.9938 54.8149C81.8371 54.5229 81.6254 54.1237 81.4167 53.6782C81.0635 52.9242 80.4175 51.4358 80.3425 49.7026C80.29 48.4902 80.2374 47.1425 80.1852 45.6606C80.183 45.5962 80.1823 45.5317 80.1823 45.4672V40.4135C80.1823 40.3636 80.1829 40.313 80.1843 40.2631C80.2036 39.5516 80.212 37.9271 80.2809 36.643C80.3176 35.9597 80.3783 35.1743 80.4958 34.4223C80.5857 33.8469 80.8021 32.5917 81.4743 31.4125L81.6618 31.0659C81.6783 31.0326 81.6892 31.0104 81.695 30.9975C81.6979 30.9911 81.6997 30.9865 81.7009 30.9838L81.7028 30.9799V30.978C81.7038 30.9752 81.7054 30.9705 81.7077 30.9633C81.7228 30.9167 81.7349 30.8747 81.7839 30.7104L81.9059 30.3481C82.235 29.4712 82.6569 28.6277 83.1784 27.8315C83.8695 26.6797 84.6957 25.6258 85.6452 24.6743C85.693 24.6263 85.7412 24.5788 85.7907 24.5327C86.6418 23.7406 87.5759 23.0492 88.572 22.4467C88.725 22.2919 88.8865 22.1446 89.0573 22.0073C89.6202 21.5547 90.1706 21.2862 90.571 21.1254C90.9233 20.984 91.2455 20.8929 91.4997 20.8315C92.2754 20.6238 93.0668 20.451 93.8727 20.311V20.31C93.8958 20.3056 93.9191 20.3027 93.9421 20.2983C93.9607 20.2951 93.9791 20.2907 93.9977 20.2875V20.2885C96.7337 19.7695 99.4679 19.5559 102.193 19.6635C104.852 19.7685 107.405 20.1369 109.835 20.7914L109.836 20.7905C110.552 20.9709 110.706 20.9486 111.731 21.1108C112.846 21.2872 114.057 21.5948 115.541 22.3911C117.647 23.5214 119.538 24.9371 121.051 26.7123C122.235 28.0772 122.907 29.7136 123.285 30.8178C123.697 32.0235 123.968 33.2338 124.115 34.1879ZM102.637 48.2817C102.642 48.3396 102.647 48.3973 102.655 48.4545C102.647 48.3971 102.643 48.3393 102.637 48.2817ZM102.778 40.7397C102.755 41.6406 102.743 42.5732 102.743 43.5375C102.743 44.4004 102.778 45.1334 102.833 45.7485C103.141 44.5629 103.732 43.5456 104.454 42.726C103.802 42.1739 103.228 41.5104 102.778 40.7397ZM87.1442 24.8813C87.0635 25.1291 87.0507 25.2338 87.0905 25.0776C87.0994 25.0425 87.1172 24.9744 87.1442 24.8813Z" fill="white" stroke="white" stroke-width="11" stroke-linejoin="round"/>
<path d="M63.8162 19.8042C64.4197 19.8119 65.1801 19.8227 66.0975 19.8344C66.5562 19.8264 67.6207 19.8119 68.4276 19.7973C72.9267 19.716 75.9488 22.696 77.1815 25.9194C77.3435 26.1569 77.5694 26.5082 77.7947 26.9682C78.0027 27.3927 78.168 27.8281 78.3084 28.2768C78.6855 29.3686 79.0565 30.5259 79.4227 31.7466C79.8325 32.9603 80.2208 34.1294 80.5867 35.2534C80.9444 36.352 81.2771 37.3489 81.5858 38.2446L82.3563 40.5005L82.4031 40.6499L86.5076 54.1391C88.0435 59.1874 84.4345 64.2907 79.243 64.603C79.0392 64.6288 78.8867 64.6492 78.7371 64.6704C78.5674 64.6944 78.2537 64.7406 77.8973 64.7671C77.1917 64.8194 76.4854 64.7802 75.7313 64.7426V64.7417C74.8123 64.7101 74.0961 64.6468 73.3348 64.476C72.6486 64.3221 72.8141 64.3381 72.6082 64.2983C69.645 64.2039 66.5025 62.5191 65.1678 59.187C65.1396 59.1167 65.1116 59.0461 65.0838 58.9751C65.0806 58.9668 65.0782 58.958 65.075 58.9497C64.3452 61.8409 61.9702 63.0815 61.1209 63.4555C59.7454 64.0613 58.3096 64.3304 56.9168 64.3305C56.8622 64.3305 56.8087 64.3305 56.7576 64.3305C56.7533 64.3308 56.7487 64.3312 56.744 64.3315C56.6351 64.3386 56.4599 64.348 56.244 64.3471C56.0284 64.3462 55.8214 64.336 55.6199 64.3178C55.5853 64.3147 55.443 64.3034 55.116 64.2856C54.6763 64.2617 54.3104 64.2328 53.9676 64.185C53.9338 64.1803 53.9016 64.1741 53.8709 64.1694C53.8404 64.1685 53.8024 64.1674 53.7567 64.1665C53.4766 64.1605 53.0062 64.1553 52.1942 64.1528C52.1764 64.1527 52.1582 64.153 52.1404 64.1528C52.1243 64.1528 51.8912 64.1513 51.4686 64.1489C51.0512 64.1465 50.5003 64.1437 49.9598 64.1391C48.0802 64.1232 45.8259 63.388 44.3289 61.3247C42.8788 59.3259 42.8516 57.058 43.2713 55.395L43.4959 54.5239C43.7391 53.5991 44.0367 52.5148 44.3865 51.2788C44.8506 49.6389 45.3904 47.7631 46.0047 45.6528C46.0133 45.6231 46.0219 45.5935 46.0311 45.5639C46.7183 43.3443 47.5031 41.0071 48.3836 38.5551C49.2582 36.1195 50.2063 33.593 51.2264 30.976C51.4762 30.3351 51.6672 29.8254 51.8387 29.3647C52.0061 28.915 52.1733 28.4614 52.3514 28.0034C52.4418 27.7707 53.1106 25.7631 53.785 24.4594C54.327 23.4115 56.3735 19.7093 60.8016 19.7661C61.1858 19.771 63.1918 19.7961 63.8162 19.8042ZM65.3797 39.7651C64.7322 39.7794 64.0971 40.0108 63.575 40.4048C63.5961 40.414 63.6153 40.4235 63.6336 40.4311C64.0286 40.596 64.2991 40.631 64.3729 40.6401C64.4617 40.651 64.6423 40.6682 64.9315 40.6362C65.0225 40.6261 65.1844 40.6021 65.3963 40.5522L65.3797 39.7651ZM65.5623 40.5102C65.632 40.4909 65.7061 40.4703 65.783 40.4448C65.9347 40.3945 66.2557 40.281 66.6502 40.0581C66.3486 39.8806 65.9876 39.7695 65.5721 39.7641L65.5623 40.5102Z" fill="white" stroke="white" stroke-width="11" stroke-linejoin="round"/>
<path d="M35.7285 19.7055C37.0549 19.6322 40.5131 19.6216 41.3886 19.6567L41.3876 19.6577C45.6356 19.7715 48.8293 23.1826 49.0419 27.1655L50.5849 56.0893C50.8064 60.2406 47.7265 64.3644 42.9628 64.5366L42.9619 64.5356C42.0538 64.57 41.1455 64.5883 40.2372 64.5883H35.0732C34.3889 64.5883 33.8628 64.6031 33.4755 64.6264C33.3654 64.633 33.2548 64.6362 33.1445 64.6362C30.9462 64.6361 28.9891 63.3505 28.0869 61.4155C26.745 63.2715 24.602 64.6362 21.7734 64.6362C20.7544 64.6362 19.7357 64.5994 18.7177 64.5258C17.8832 64.4655 17.0993 64.4205 16.3661 64.3911H16.3535C16.3471 64.3909 16.299 64.389 16.1962 64.3881C16.0877 64.3872 15.9486 64.388 15.7841 64.3891C13.2941 64.4062 11.0999 63.352 9.55951 62.0424C8.02589 60.7385 6.51099 58.6342 6.27533 55.9086C6.27062 55.8542 6.26669 55.7992 6.26361 55.7446C6.17369 54.152 6.0844 52.3861 5.99506 50.4487V50.4448C5.90597 48.4806 5.81645 46.4049 5.72748 44.2182C5.72597 44.1811 5.7253 44.144 5.72455 44.1069C5.68022 41.9279 5.63509 39.7487 5.59076 37.5698V37.5678C5.54576 35.3234 5.52338 33.1716 5.52338 31.1127C5.52338 31.0731 5.5235 31.0332 5.52435 30.9936C5.54393 30.0879 5.53208 29.4707 5.51849 28.8354C5.50447 28.1801 5.48742 27.4523 5.51361 26.4868C5.51879 26.2963 5.53364 26.1063 5.55853 25.9174C6.00235 22.5524 8.87137 20.0366 12.2656 20.0366H13.1894C13.383 20.0366 13.5621 20.0446 13.7206 20.0551L14.1288 20.0912L14.4579 20.1157C14.6093 20.1242 14.7994 20.1326 15.0175 20.1381C15.4429 20.1489 15.7892 20.1449 15.9394 20.1381H15.954C16.7029 20.1063 17.4297 20.0742 18.1337 20.0424C18.1385 20.0422 18.1436 20.0416 18.1484 20.0414C18.975 20.0063 19.7852 19.9887 20.5771 19.9887L20.9902 19.9985C23.8001 20.1386 25.933 21.7019 27.1718 23.7162C28.2597 21.7842 30.1777 20.2691 32.7812 19.937L32.8193 19.9321C33.7732 19.8171 34.7434 19.742 35.7285 19.7045V19.7055Z" fill="white" stroke="white" stroke-width="11" stroke-linejoin="round"/>
<g filter="url(#filter0_d_24_71)">
<path d="M224.469 39.6688C224.507 39.7145 224.949 39.7642 225.51 39.8181C227.158 39.9765 229.089 39.9253 230.368 40.978C230.39 40.9963 230.412 41.015 230.435 41.034C231.237 41.6332 231.905 42.2797 232.439 42.9735C233.027 43.6358 233.428 45.3769 233.642 46.1968C233.856 47.0168 233.802 47.9313 233.482 48.9405C233.054 50.4227 232.226 51.6368 230.996 52.5829C229.82 53.4975 228.377 54.207 226.667 54.7116C224.957 55.2162 223.059 55.5631 220.975 55.7523C218.89 55.91 216.726 55.9888 214.481 55.9888C212.29 56.0204 210.071 55.9888 207.827 55.8942C205.635 55.7996 206.578 55.7365 204.653 55.705C204.333 55.705 205.012 55.705 204.691 55.705C201.844 55.705 199.773 53.6552 199.663 50.8099C199.484 46.2031 199.526 43.5001 199.649 39.385C199.81 33.9923 199.919 32.9879 199.758 27.5006C199.742 24.9204 201.607 22.6983 204.173 22.4301C204.948 22.3491 205.739 22.2769 206.544 22.2135C208.949 22.0243 211.328 21.9612 213.679 22.0243C216.031 22.0874 218.276 22.2924 220.414 22.6392C222.605 22.9861 224.529 23.5538 226.186 24.3422C227.843 25.0991 229.152 26.0925 230.114 27.3224C231.076 28.5208 231.557 30.003 231.557 31.769C231.557 33.0935 231.157 34.3865 230.355 35.6479C229.888 36.4346 229.515 37.018 229.041 37.6058C228.416 38.3802 227.569 38.9556 226.607 39.2078C225.379 39.5295 224.391 39.5768 224.469 39.6688ZM218.57 48.8459C219.318 48.6566 219.959 48.3728 220.494 47.9944C221.082 47.5213 221.349 46.9537 221.296 46.2914C221.296 45.6292 221.108 45.03 220.734 44.4939C220.414 44.1154 219.933 43.7843 219.291 43.5005C218.65 43.1851 217.982 42.9801 217.287 42.8855C216.271 42.7278 215.229 42.649 214.16 42.649C213.68 42.6348 213.206 42.6175 212.736 42.597C211.711 42.5521 210.738 43.1238 210.472 44.1154C210.312 44.7146 210.205 45.3296 210.152 45.9603C210.152 46.5595 210.232 47.1429 210.392 47.7106C210.543 48.2445 210.812 48.6947 211.199 49.0613C211.248 49.1071 211.307 49.1395 211.371 49.1584C211.413 49.1707 211.457 49.177 211.5 49.177C212.228 49.1779 212.981 49.1937 213.759 49.2243C214.615 49.2243 215.443 49.2085 216.245 49.177C217.1 49.1139 217.875 49.0035 218.57 48.8459ZM218.65 35.6006C219.398 35.3483 219.986 34.9857 220.414 34.5126C220.788 34.1342 221.108 33.6927 221.376 33.1881C221.643 32.6835 221.563 32.179 221.135 31.6744C220.708 31.1698 220.146 30.7914 219.452 30.5391C218.81 30.2552 218.062 30.0503 217.207 29.9241C216.138 29.798 214.989 29.7349 213.759 29.7349C213.647 29.7319 213.537 29.7302 213.428 29.7298C211.892 29.7237 210.942 31.21 210.633 32.7151C210.596 32.9548 210.576 33.1963 210.573 33.4394C210.554 35.0208 212.099 36.0188 213.679 36.0737C214.588 36.1052 215.47 36.0895 216.325 36.0264C217.18 35.9633 217.955 35.8214 218.65 35.6006Z" fill="#DF88D5"/>
<path d="M188.812 36.7603C189.149 37.6868 189.413 38.4216 189.605 38.9647L193.605 49.6587C193.871 50.3682 193.97 51.129 193.895 51.8828C193.668 54.1692 191.893 56.0276 189.596 55.9979C189.318 55.9943 189.037 55.9872 188.752 55.9767C187.725 55.9577 186.731 55.9049 185.772 55.8182C184.545 55.7075 183.456 55.016 182.758 54.0006C182.668 53.8402 182.613 53.7512 182.572 53.6829C182.314 53.2545 182.212 52.7532 182.115 52.2625C182.033 51.8492 181.944 51.4753 181.758 51.0006C181.518 50.2659 181.619 50.1782 181.331 49.5073C181.26 49.3433 181.188 49.1849 181.115 49.0324C180.718 48.2053 179.871 47.6863 178.953 47.6863C178.617 47.6863 178.305 47.6863 178.016 47.6863C177.776 47.6863 177.488 47.7023 177.152 47.7343C177.057 47.7343 176.786 47.7343 176.447 47.7343C175.186 47.7343 173.969 48.3614 173.561 49.5553C173.369 50.2262 173.153 50.945 172.913 51.7117C172.72 52.4465 172.504 53.1653 172.264 53.8681C172.035 54.539 171.718 55.1371 171.314 55.6625C171.277 55.7099 171.218 55.7332 171.163 55.7566C171.163 55.757 171.162 55.7574 171.161 55.7577C171.127 55.7725 171.104 55.785 171.067 55.785C171.057 55.785 171.035 55.7858 171.024 55.7874C170.631 55.8489 169.675 55.8481 168.157 55.785C166.62 55.7211 168.218 55.7051 164.952 55.7371C164.948 55.7371 164.927 55.731 164.89 55.7196C162.77 55.0663 161.805 52.9796 162.312 50.8202C162.552 49.7979 162.889 48.4721 163.321 46.8428C163.753 45.2135 163.258 46.3445 163.834 44.236C164.458 42.0955 165.179 39.8273 165.996 37.4312C166.812 35.0352 167.701 32.5433 168.661 29.9555C169.166 28.5976 169.421 27.7948 169.716 26.9691C170.33 25.2523 171.089 22.1923 172.913 22.1923C173.297 22.1923 175.302 22.1923 175.927 22.1923C176.551 22.1923 177.344 22.1923 178.305 22.1923C178.797 22.1767 179.714 22.1536 180.709 22.1228C182.476 22.0681 183.785 23.2406 184.345 24.9175C184.681 25.7481 185.018 25.7065 185.354 26.7927C185.738 27.847 186.122 28.9811 186.507 30.1951C186.939 31.4091 187.347 32.5752 187.732 33.6934C188.116 34.8115 188.476 35.8339 188.812 36.7603ZM178.016 42.1275C179.445 42.0775 180.532 40.789 180.261 39.3854C179.973 37.8902 179.705 36.6478 179.457 35.6581C179.121 34.1247 178.809 33.0864 178.521 32.5433C178.281 32.0002 176.515 31.8884 176.227 32.2078C175.987 32.4954 175.747 33.1024 175.507 34.0288C175.314 34.9553 175.074 36.1214 174.786 37.5271C174.759 37.6841 174.728 37.8629 174.693 38.0567C174.313 40.1543 175.885 42.1275 178.016 42.1275Z" fill="#DF88D5"/>
</g>
<g filter="url(#filter1_d_24_71)">
<path d="M147.561 37.4174C145.688 39.535 144.869 41.0203 147.017 42.8574L156.039 50.5701C158.642 52.7955 157.412 56.7185 153.988 56.7295C152.897 56.7321 151.847 56.7382 150.837 56.7476C149.268 56.7624 147.696 56.3648 146.501 55.3477C146.054 54.9666 145.62 54.5593 145.199 54.1259C144.195 53.0615 143.217 51.9637 142.265 50.8328C141.366 49.7 140.468 48.5833 139.571 47.4828C139.37 47.236 139.169 46.995 138.968 46.7596C138.216 45.879 136.876 46.4186 136.916 47.5755C137.007 48.6395 137.099 49.7196 137.191 50.816C137.283 51.9123 137.347 52.9934 137.384 54.0593C137.393 54.1561 137.401 54.2522 137.408 54.3477C137.534 55.8848 136.461 57.2442 134.922 57.3468C133.905 57.447 132.834 57.5168 131.708 57.5561C130.582 57.5954 129.481 57.6015 128.406 57.5744C126.896 57.5314 125.699 56.3522 125.56 54.848C125.124 50.1573 124.937 45.4465 124.999 40.7153C125.085 36.8756 125.083 33.0314 124.993 29.1828C124.924 26.1972 127.215 23.6511 130.202 23.6526C133.229 23.599 135.829 25.8696 135.872 28.8972C135.874 29.039 135.875 29.1813 135.876 29.324C135.894 31.3608 135.988 33.2978 136.16 35.1352C136.163 35.214 136.266 35.0556 136.326 35.0035C136.401 34.9374 136.476 34.8797 136.552 34.8304C137.648 33.919 138.635 32.979 139.514 32.0105C140.393 31.042 141.217 30.0592 141.988 29.0621C142.812 28.0631 143.636 27.0642 144.461 26.0652C144.695 25.798 144.937 25.5305 145.187 25.2628C146.563 23.7863 148.538 23.0718 150.555 22.9889C151.314 22.9577 152.091 22.9149 152.886 22.8605C153.226 22.8372 153.564 22.8175 153.899 22.8014C156.066 22.6975 158.133 25.2595 156.767 26.9452C155.688 28.3411 153.538 30.7751 152.244 32.1785C151.005 33.58 148.801 36.0158 147.561 37.4174Z" fill="#D4D718"/>
</g>
<g filter="url(#filter2_d_24_71)">
<path d="M99.9587 31.1078C99.2345 31.1997 98.6655 31.3682 98.2517 31.6132C98.185 31.6527 98.1183 31.7113 98.0516 31.7889C97.9724 31.8813 97.914 32.0115 97.8519 32.1161C97.8062 32.1932 97.7524 32.2428 97.7211 32.3267C97.6394 32.5465 97.5576 33.0438 97.4758 33.8186C97.4241 34.7988 97.3724 35.9627 97.3206 37.3105C97.2689 38.6582 97.243 40.0673 97.243 41.5375C97.243 42.9772 97.3206 44.233 97.4758 45.3051C97.631 46.1934 98.0189 47.0663 98.6396 47.924C99.3121 48.751 100.398 49.2871 101.898 49.5321C103.036 49.5934 104.097 49.5015 105.08 49.2564C106.114 48.9808 106.89 48.5366 107.407 47.924C107.976 47.2195 108.209 46.4844 108.105 45.7186C108.015 44.3245 109.397 43.4694 110.793 43.4223C110.802 43.422 110.812 43.4216 110.821 43.4213C111.752 43.3907 112.683 43.3754 113.614 43.3754C114.545 43.3754 115.451 43.3907 116.33 43.4213C117.906 43.4731 119.399 44.4336 119.64 45.9918C119.765 46.8044 119.722 47.6169 119.511 48.4294C119.097 49.9916 118.192 51.4006 116.795 52.6564C115.399 53.9123 113.563 54.9537 111.287 55.7808C109.062 56.5772 106.528 56.9907 103.683 57.0213C101.821 57.1745 99.9069 57.1745 97.9413 57.0213C95.9758 56.8988 95.2795 56.6078 93.5726 56.1483C91.8656 55.6582 91.5573 54.9844 90.3676 54.1267C89.2297 53.2691 87.5443 51.5771 87.2103 50.9105C86.8223 50.1362 85.8892 48.6591 85.8375 47.4645C85.7858 46.27 85.734 44.9375 85.6823 43.4673C85.6823 41.9664 85.6823 40.2817 85.6823 38.4132C85.734 36.5141 85.6823 33.1362 86.2523 32.1362C86.7958 31.1828 86.8999 30.8015 87.0551 30.2808C87.262 29.7294 87.5206 29.224 87.831 28.7645C88.2965 27.9681 88.8655 27.233 89.538 26.5591C90.2621 25.8853 91.1156 25.288 92.0984 24.7672C92.6674 24.5222 92.1481 24.3231 92.8205 24.17C93.4929 23.9862 94.1912 23.833 94.9154 23.7105C97.2948 23.251 99.6483 23.0673 101.976 23.1591C104.304 23.251 106.476 23.5727 108.493 24.124C110.562 24.6447 111.285 24.3492 112.94 25.2375C114.595 26.1258 115.914 27.1519 116.897 28.3159C117.88 29.4492 118.474 31.6898 118.681 33.0375C118.698 33.1482 118.72 33.259 118.744 33.37C119.269 35.7897 117.453 37.4157 114.977 37.4609C114.391 37.4717 113.807 37.4674 113.226 37.4483C112.036 37.3879 110.813 37.301 109.555 37.1877C108.353 37.0793 107.337 36.2174 107.252 35.0132C107.252 34.2781 107.123 33.6042 106.864 32.9916C106.605 32.3483 106.114 31.8276 105.39 31.4294C104.717 31.0312 103.631 30.8474 102.131 30.8781C101.459 30.9393 100.735 31.0159 99.9587 31.1078Z" fill="#DF88D5"/>
</g>
<g filter="url(#filter3_d_24_71)">
<path d="M76.3859 38.0362C76.7066 38.9669 76.9585 39.705 77.1416 40.2505L81.2456 53.7403C81.7545 55.4131 80.5115 57.1049 78.7631 57.1192C77.319 57.2923 77.7329 57.3358 76.0049 57.2497C74.3728 57.1986 74.6108 57.0631 73.3519 56.8433C73.1931 56.8156 73.0313 56.8034 72.8702 56.8033C71.7423 56.8028 70.6933 56.1889 70.2739 55.1419C70.2513 55.0854 70.2287 55.0283 70.2061 54.9706C69.9777 54.2647 69.7255 53.5426 69.4496 52.8042C69.2217 52.0664 68.9693 51.3602 68.6923 50.6857C68.6248 50.5214 68.5559 50.3628 68.4853 50.2098C68.1015 49.377 67.2622 48.8461 66.3452 48.8344C66.009 48.83 65.6968 48.826 65.4086 48.8223C65.1685 48.8192 64.88 48.8315 64.5433 48.8591C64.4487 48.8579 64.1796 48.8545 63.8421 48.8501C62.5782 48.8339 61.3508 49.4445 60.9226 50.6338C60.7193 51.3021 60.4912 52.0181 60.2382 52.7817C60.0338 53.5139 60.2634 52.9365 60.0115 53.6362C59.8296 54.1414 59.8798 54.9402 59.7556 55.5476C59.6703 55.9645 59.2939 56.2509 58.9045 56.4224C58.2768 56.6988 57.6021 56.8307 56.9162 56.8307C56.8265 56.8307 56.7403 56.8307 56.6622 56.8307C56.4189 56.8307 56.3557 56.8615 56.1134 56.8397C55.9837 56.828 55.767 56.8126 55.4152 56.7934C53.8793 56.7098 55.4781 56.6629 52.2115 56.6529C52.1864 56.6526 51.0727 56.6479 50.0063 56.6389C48.8838 56.6294 48.329 55.8294 48.6037 54.7409C48.8609 53.7218 49.2193 52.4004 49.6788 50.7768C50.1383 49.1533 50.6738 47.291 51.2854 45.1901C51.9455 43.0579 52.7038 40.7991 53.5604 38.4138C54.4169 36.0285 55.3471 33.5483 56.3509 30.9732C56.8802 29.6153 57.1581 28.8182 57.4779 27.9956C58.1369 26.3002 58.9124 23.2421 60.7312 23.2655C61.1154 23.2704 63.1207 23.2962 63.7451 23.3042C64.3695 23.3122 65.162 23.3224 66.1226 23.3347C66.6147 23.3255 67.5322 23.3141 68.5273 23.2961C70.2943 23.2642 71.6009 24.4522 72.1336 26.1373C72.4559 26.9722 72.7761 26.9348 73.0942 28.0253C73.4608 29.0843 73.8261 30.2233 74.1901 31.4421C74.6021 32.6615 74.9909 33.8327 75.3564 34.9557C75.722 36.0787 76.0652 37.1055 76.3859 38.0362ZM65.5015 43.2641C66.9326 43.2324 68.0392 41.9591 67.7918 40.5492C67.5289 39.0513 67.2818 37.8062 67.0504 36.8139C66.7398 35.2763 66.445 34.2341 66.1659 33.6874C65.9348 33.1412 64.1715 33.0067 63.878 33.3225C63.6331 33.6069 63.3828 34.2107 63.1272 35.134C62.9196 36.0579 62.6599 37.2208 62.3483 38.6226C62.3187 38.7802 62.2838 38.9597 62.2453 39.1542C61.8319 41.2423 63.373 43.2367 65.5015 43.2641Z" fill="#DF88D5"/>
</g>
<g filter="url(#filter4_d_24_71)">
<path d="M41.1684 23.1522C42.4529 23.1522 43.4813 24.176 43.5498 25.4586L45.0931 54.3826C45.1673 55.7724 44.1552 56.9898 42.7643 57.04C41.922 57.0721 41.0797 57.0881 40.2374 57.0881C39.4395 57.0881 35.8709 57.0881 35.0729 57.0881C34.3193 57.0881 33.6765 57.1041 33.1445 57.1362C33.1058 57.1362 33.0723 57.109 33.0645 57.0711C32.85 56.034 32.6994 54.9661 32.6126 53.8676C32.5682 52.7139 32.5239 51.5763 32.4796 50.4547C32.4796 49.3332 32.4574 48.2116 32.4131 47.09C32.3695 45.9865 32.2615 44.9295 32.0891 43.919C32.0837 43.8872 32.0659 43.8589 32.0398 43.8399C32.0229 43.8278 32.0033 43.82 31.9826 43.8175C30.7075 43.6598 29.4324 43.581 28.1573 43.581C27.6769 43.581 26.7774 43.5967 25.7721 43.628C23.1129 43.7109 24.1011 44.5738 24.1011 47.2342C24.1454 48.3237 24.1897 49.4133 24.2341 50.5028C24.2784 51.5923 24.2784 52.6659 24.2341 53.7234C24.2341 54.0339 24.2239 54.3444 24.2036 54.6549C24.1148 56.0109 23.1327 57.1362 21.7737 57.1362C20.8871 57.1362 20.0005 57.1041 19.1139 57.04C18.2272 56.9759 17.385 56.9279 16.587 56.8958C16.4172 56.8886 16.1157 56.8863 15.746 56.8888C13.9116 56.9014 11.913 55.2626 11.755 53.4349C11.6663 51.8647 11.5776 50.1183 11.489 48.1955C11.4003 46.2408 11.3117 44.1739 11.223 41.9948C11.1787 39.8157 11.1343 37.6366 11.09 35.4576C11.0457 33.2464 11.0235 31.1315 11.0235 29.1126C11.0678 27.0617 10.9672 26.2705 11.0115 24.6362C11.0945 24.007 11.6308 23.5367 12.2655 23.5367H13.1893C13.3003 23.5367 13.4106 23.5453 13.5209 23.5576C14.2385 23.6374 15.5327 23.6625 16.188 23.6329C16.9417 23.6008 17.6731 23.5688 18.3824 23.5367C19.136 23.5047 19.8675 23.4887 20.5768 23.4887C21.7897 23.4887 22.724 24.4618 22.8783 25.6648C23.0728 27.1818 23.1701 28.6675 23.1701 30.122C23.1701 32.1851 23.431 33.25 23.9529 35.2629C23.9617 35.297 23.9927 35.3214 24.0279 35.3214C24.0323 35.3214 24.0368 35.3218 24.0411 35.3225C25.1476 35.5139 26.3423 35.5776 27.6254 35.5136C28.9109 35.4175 30.1079 35.3374 31.2161 35.2733C31.2541 35.2733 31.2861 35.2442 31.2907 35.2066C31.5513 33.0405 31.6816 31.9772 31.6816 30.074C31.7131 28.7081 31.6999 27.2452 31.6419 25.6853C31.5997 24.5523 32.3523 23.536 33.477 23.3925C34.275 23.2964 35.0951 23.2323 35.9374 23.2003C36.7796 23.1362 40.3704 23.1201 41.1684 23.1522Z" fill="#D4D718"/>
</g>
<path fill-rule="evenodd" clip-rule="evenodd" d="M248.283 29.3853C248.487 27.7294 247.623 26.7699 246.513 26.0928C245.198 25.2903 243.699 25.0179 242.14 25.0982C240.047 25.2056 237.953 25.2686 235.86 25.3463C235.787 25.3491 235.712 25.3058 235.511 25.2461C235.841 24.9074 236.125 24.6302 236.392 24.338C236.837 23.8522 237.325 23.3945 237.699 22.8579C238.706 21.4135 239.661 19.9335 240.61 18.508C242.409 18.3513 244.141 18.2228 245.868 18.0411C246.771 17.9461 247.66 17.6948 248.564 17.6257C250.039 17.5126 251.491 17.5946 252.714 18.6155C253.412 19.1977 253.843 20.4494 253.541 21.2957C253.366 21.7851 253.135 22.2664 252.855 22.7039C252.068 23.9353 251.237 25.138 250.435 26.3597C249.936 27.1194 249.469 27.9006 248.965 28.6567C248.806 28.8937 248.572 29.0804 248.283 29.3853Z" fill="#93EEFE"/>
<path fill-rule="evenodd" clip-rule="evenodd" d="M222.908 10.0719C223.536 8.96639 224.127 8.05597 224.979 7.32738C226.423 6.09225 227.816 4.79617 229.293 3.60328C229.991 3.03957 230.796 2.57076 231.62 2.2108C232.63 1.7686 233.114 2.02115 233.636 2.99758C233.869 3.43466 234.145 3.85161 234.35 4.30125C234.757 5.1932 234.954 6.13741 234.842 7.11869C234.71 8.2821 234.776 9.41456 235.06 10.5609C235.25 11.3276 235.237 12.145 235.318 12.9637C235.006 13.1198 234.703 13.2475 234.425 13.4159C233.594 13.9189 232.86 14.5186 232.281 15.3242C231.64 16.2165 230.902 17.0382 230.238 17.9148C229.977 18.2596 229.802 18.6695 229.539 19.138C229.415 18.8884 229.299 18.7152 229.239 18.5242C228.807 17.1579 228.368 15.7939 227.97 14.4175C227.653 13.3169 227.169 12.3077 226.496 11.3851C226.382 11.2293 226.262 11.0778 226.155 10.9175C225.327 9.67159 224.473 9.41555 222.908 10.0719Z" fill="#93EEFE"/>
<path fill-rule="evenodd" clip-rule="evenodd" d="M232.432 22.6787C232.095 22.9142 231.901 23.0496 231.668 23.2129C230.54 22.7525 229.967 21.8032 229.658 20.6887C229.564 20.3508 229.689 19.9212 229.806 19.5631C230.091 18.6884 230.579 17.92 231.174 17.2177C231.656 16.6493 232.15 16.0889 232.593 15.4909C233.15 14.7374 233.892 14.2256 234.679 13.76C235.235 13.4313 235.741 13.435 236.269 13.8825C237.216 14.685 238.197 15.4489 239.179 16.2085C239.675 16.5919 239.924 17.1213 239.991 17.6925C240.035 18.0715 239.937 18.5306 239.743 18.8617C239.314 19.5984 238.78 20.2737 238.299 20.9811C238.052 21.3452 237.803 21.7118 237.597 22.0997C237 23.2195 236.032 24.0193 235.177 24.9136C235.068 25.0283 234.748 25.0525 234.583 24.9831C234.05 24.7607 233.517 24.5133 233.038 24.1962C232.815 24.0486 232.684 23.7301 232.566 23.4653C232.483 23.2792 232.491 23.0525 232.432 22.6787Z" fill="#93EEFE"/>
<path fill-rule="evenodd" clip-rule="evenodd" d="M236.503 25.8592C237.166 25.8636 237.792 25.8789 238.418 25.8704C240.181 25.846 241.945 25.7512 243.705 25.8103C244.426 25.8345 245.153 26.1391 245.848 26.3956C246.68 26.7025 247.282 27.3156 247.707 28.0874C247.999 28.6181 247.973 28.8402 247.567 29.2785C246.586 30.3396 244.931 30.848 243.64 30.256C242.715 29.8319 241.799 29.3693 240.94 28.8271C239.452 27.888 238.012 26.8741 236.503 25.8592Z" fill="#7DBDC8"/>
<path fill-rule="evenodd" clip-rule="evenodd" d="M228.996 19.893C227.159 18.3016 225.361 16.7631 223.588 15.1966C223.159 14.817 222.806 14.3492 222.43 13.9119C221.542 12.8792 222.115 11.0045 223.362 10.2737C223.947 9.93014 224.905 10.1764 225.279 10.7295C225.494 11.0482 225.696 11.3773 225.928 11.6834C226.777 12.8054 227.192 14.1163 227.604 15.435C228.039 16.8266 228.513 18.206 228.967 19.592C228.991 19.6646 228.983 19.748 228.996 19.893Z" fill="#7DBDC8"/>
<path d="M231.445 1.20181C231.984 0.998939 232.591 0.897698 233.195 1.14908C233.847 1.42033 234.238 2.00232 234.518 2.52603C234.624 2.72611 234.736 2.91321 234.87 3.14615C234.997 3.36692 235.137 3.61646 235.26 3.88541V3.88638C235.728 4.9126 235.971 6.03888 235.836 7.23111C235.717 8.28086 235.776 9.29371 236.03 10.32C236.145 10.7844 236.195 11.2461 236.227 11.6667C236.258 12.0691 236.272 12.3803 236.302 12.7243C236.523 12.8255 236.728 12.9607 236.916 13.1198C237.844 13.9062 238.809 14.6581 239.791 15.4176H239.792C240.5 15.9655 240.856 16.7136 240.968 17.4733C242.62 17.3323 244.189 17.2122 245.764 17.0465C246.167 17.0041 246.571 16.9264 247.033 16.8405C247.479 16.7576 247.975 16.6677 248.487 16.6286C250.024 16.5108 251.818 16.5653 253.354 17.8473C253.88 18.2856 254.253 18.9215 254.455 19.5514C254.655 20.1759 254.73 20.9375 254.482 21.6315C254.285 22.1861 254.021 22.7358 253.697 23.2419C252.911 24.4728 252.05 25.7213 251.27 26.9088C251.028 27.2785 250.793 27.6542 250.549 28.0417C250.307 28.426 250.057 28.8211 249.797 29.2116L249.796 29.2126C249.66 29.4153 249.505 29.5777 249.38 29.7028C249.236 29.846 249.142 29.9321 249.008 30.0739C248.727 30.3689 248.3 30.4598 247.925 30.3151C246.693 31.3792 244.825 31.8992 243.223 31.1647C242.277 30.7311 241.317 30.2475 240.406 29.6725C238.903 28.7234 237.43 27.6879 235.945 26.6891C235.803 26.5935 235.692 26.4657 235.617 26.321C235.515 26.3011 235.441 26.2766 235.413 26.2672C235.331 26.2396 235.303 26.2274 235.227 26.2047C235.097 26.1662 234.978 26.1024 234.877 26.0192C234.677 26.026 234.431 26.0043 234.196 25.9059V25.9049C233.645 25.6748 233.045 25.399 232.486 25.0299C232.184 24.83 232.001 24.5564 231.895 24.3717C231.863 24.3158 231.836 24.257 231.808 24.2008C231.635 24.2253 231.456 24.2063 231.29 24.1383C229.766 23.5163 229.048 22.2327 228.694 20.9557C228.683 20.9145 228.673 20.8734 228.665 20.8327C228.549 20.7918 228.438 20.7327 228.342 20.6491C226.51 19.0628 224.703 17.5169 222.926 15.946C222.428 15.506 221.991 14.9354 221.672 14.5641C220.949 13.7235 220.884 12.6212 221.131 11.7165C221.277 11.1819 221.545 10.6565 221.92 10.2096C221.89 9.99633 221.926 9.77417 222.038 9.57779C222.676 8.45542 223.338 7.41494 224.329 6.56705C225.549 5.52292 226.817 4.35978 228.109 3.28189L228.665 2.82486C229.442 2.19736 230.326 1.68476 231.219 1.29459L231.445 1.20181Z" stroke="white" stroke-width="2" stroke-linejoin="round"/>
<defs>
<filter id="filter0_d_24_71" x="160.179" y="20.0006" width="77.5908" height="40" filterUnits="userSpaceOnUse" color-interpolation-filters="sRGB">
<feFlood flood-opacity="0" result="BackgroundImageFix"/>
<feColorMatrix in="SourceAlpha" type="matrix" values="0 0 0 0 0 0 0 0 0 0 0 0 0 0 0 0 0 0 127 0" result="hardAlpha"/>
<feOffset dx="1" dy="1"/>
<feGaussianBlur stdDeviation="1.5"/>
<feComposite in2="hardAlpha" operator="out"/>
<feColorMatrix type="matrix" values="0 0 0 0 0 0 0 0 0 0 0 0 0 0 0 0 0 0 0.61 0"/>
<feBlend mode="normal" in2="BackgroundImageFix" result="effect1_dropShadow_24_71"/>
<feBlend mode="normal" in="SourceGraphic" in2="effect1_dropShadow_24_71" result="shape"/>
</filter>
<filter id="filter1_d_24_71" x="122.987" y="20.7984" width="38.4499" height="40.7926" filterUnits="userSpaceOnUse" color-interpolation-filters="sRGB">
<feFlood flood-opacity="0" result="BackgroundImageFix"/>
<feColorMatrix in="SourceAlpha" type="matrix" values="0 0 0 0 0 0 0 0 0 0 0 0 0 0 0 0 0 0 127 0" result="hardAlpha"/>
<feOffset dx="1" dy="1"/>
<feGaussianBlur stdDeviation="1.5"/>
<feComposite in2="hardAlpha" operator="out"/>
<feColorMatrix type="matrix" values="0 0 0 0 0 0 0 0 0 0 0 0 0 0 0 0 0 0 0.61 0"/>
<feBlend mode="normal" in2="BackgroundImageFix" result="effect1_dropShadow_24_71"/>
<feBlend mode="normal" in="SourceGraphic" in2="effect1_dropShadow_24_71" result="shape"/>
</filter>
<filter id="filter2_d_24_71" x="83.6823" y="21.1362" width="40.0273" height="40" filterUnits="userSpaceOnUse" color-interpolation-filters="sRGB">
<feFlood flood-opacity="0" result="BackgroundImageFix"/>
<feColorMatrix in="SourceAlpha" type="matrix" values="0 0 0 0 0 0 0 0 0 0 0 0 0 0 0 0 0 0 127 0" result="hardAlpha"/>
<feOffset dx="1" dy="1"/>
<feGaussianBlur stdDeviation="1.5"/>
<feComposite in2="hardAlpha" operator="out"/>
<feColorMatrix type="matrix" values="0 0 0 0 0 0 0 0 0 0 0 0 0 0 0 0 0 0 0.61 0"/>
<feBlend mode="normal" in2="BackgroundImageFix" result="effect1_dropShadow_24_71"/>
<feBlend mode="normal" in="SourceGraphic" in2="effect1_dropShadow_24_71" result="shape"/>
</filter>
<filter id="filter3_d_24_71" x="46.5342" y="21.2653" width="38.8264" height="40.0273" filterUnits="userSpaceOnUse" color-interpolation-filters="sRGB">
<feFlood flood-opacity="0" result="BackgroundImageFix"/>
<feColorMatrix in="SourceAlpha" type="matrix" values="0 0 0 0 0 0 0 0 0 0 0 0 0 0 0 0 0 0 127 0" result="hardAlpha"/>
<feOffset dx="1" dy="1"/>
<feGaussianBlur stdDeviation="1.5"/>
<feComposite in2="hardAlpha" operator="out"/>
<feColorMatrix type="matrix" values="0 0 0 0 0 0 0 0 0 0 0 0 0 0 0 0 0 0 0.61 0"/>
<feBlend mode="normal" in2="BackgroundImageFix" result="effect1_dropShadow_24_71"/>
<feBlend mode="normal" in="SourceGraphic" in2="effect1_dropShadow_24_71" result="shape"/>
</filter>
<filter id="filter4_d_24_71" x="8.99994" y="21.1362" width="40.097" height="40" filterUnits="userSpaceOnUse" color-interpolation-filters="sRGB">
<feFlood flood-opacity="0" result="BackgroundImageFix"/>
<feColorMatrix in="SourceAlpha" type="matrix" values="0 0 0 0 0 0 0 0 0 0 0 0 0 0 0 0 0 0 127 0" result="hardAlpha"/>
<feOffset dx="1" dy="1"/>
<feGaussianBlur stdDeviation="1.5"/>
<feComposite in2="hardAlpha" operator="out"/>
<feColorMatrix type="matrix" values="0 0 0 0 0 0 0 0 0 0 0 0 0 0 0 0 0 0 0.61 0"/>
<feBlend mode="normal" in2="BackgroundImageFix" result="effect1_dropShadow_24_71"/>
<feBlend mode="normal" in="SourceGraphic" in2="effect1_dropShadow_24_71" result="shape"/>
</filter>
</defs>
</svg>
